<?xml version="1.0" encoding="utf-8"?>
<svg version="1.1" xmlns:xlink="http://www.w3.org/1999/xlink" width="13px" height="18px" xmlns="http://www.w3.org/2000/svg">
  <g transform="matrix(1 0 0 1 -827 -495 )">
    <path d="M 13 9  C 13 4.022999999999999  10.094500000000002 0  6.5 0  C 2.9054999999999995 0  0 4.023  0 9  C 0 13.977000000000002  2.9054999999999995 18  6.5 18  C 10.094500000000002 18  13 13.977000000000002  13 9  Z M 7.4165 9  L 9.75 12.231  L 8.8335 13.5  L 6.5 10.269  L 4.1665 13.5  L 3.25 12.231  L 5.5835 9  L 3.25 5.769  L 4.1665 4.5  L 6.5 7.731  L 8.8335 4.5  L 9.75 5.769  L 7.4165 9  Z " fill-rule="nonzero" fill="#4b4b4b" stroke="none" transform="matrix(1 0 0 1 827 495 )" />
  </g>
</svg>