<?xml version="1.0" encoding="utf-8"?>
<svg version="1.1" xmlns:xlink="http://www.w3.org/1999/xlink" width="31px" height="26px" xmlns="http://www.w3.org/2000/svg">
  <g transform="matrix(1 0 0 1 -636 -124 )">
    <path d="M 23.4921875 23.51171875  C 23.728165064102566 23.29730902777778  23.846153846153847 23.04340277777778  23.846153846153847 22.75  C 23.846153846153847 22.45659722222222  23.728165064102566 22.20269097222222  23.4921875 21.98828125  C 23.256209935897438 21.77387152777778  22.976762820512825 21.666666666666668  22.653846153846153 21.666666666666668  C 22.330929487179485 21.666666666666668  22.051482371794872 21.77387152777778  21.81550480769231 21.98828125  C 21.579527243589748 22.20269097222222  21.46153846153846 22.45659722222222  21.46153846153846 22.75  C 21.46153846153846 23.04340277777778  21.579527243589748 23.29730902777778  21.81550480769231 23.51171875  C 22.051482371794872 23.72612847222222  22.330929487179485 23.833333333333332  22.653846153846153 23.833333333333332  C 22.976762820512825 23.833333333333332  23.256209935897438 23.72612847222222  23.4921875 23.51171875  Z M 28.26141826923077 23.51171875  C 28.497395833333332 23.29730902777778  28.615384615384617 23.04340277777778  28.615384615384617 22.75  C 28.615384615384617 22.45659722222222  28.497395833333332 22.20269097222222  28.26141826923077 21.98828125  C 28.025440705128208 21.77387152777778  27.74599358974359 21.666666666666668  27.423076923076923 21.666666666666668  C 27.100160256410255 21.666666666666668  26.820713141025642 21.77387152777778  26.584735576923077 21.98828125  C 26.348758012820518 22.20269097222222  26.23076923076923 22.45659722222222  26.23076923076923 22.75  C 26.23076923076923 23.04340277777778  26.348758012820518 23.29730902777778  26.584735576923077 23.51171875  C 26.820713141025642 23.72612847222222  27.100160256410255 23.833333333333332  27.423076923076923 23.833333333333332  C 27.74599358974359 23.833333333333332  28.025440705128208 23.72612847222222  28.26141826923077 23.51171875  Z M 30.478365384615383 17.807291666666664  C 30.826121794871796 18.123263888888886  31 18.506944444444446  31 18.958333333333336  L 31 24.375  C 31 24.82638888888889  30.826121794871796 25.210069444444443  30.478365384615383 25.526041666666668  C 30.130608974358978 25.84201388888889  29.70833333333334 26  29.21153846153846 26  L 1.7884615384615385 26  C 1.2916666666666667 26  0.8693910256410258 25.84201388888889  0.5216346153846153 25.526041666666668  C 0.1738782051282051 25.210069444444443  0 24.82638888888889  0 24.375  L 0 18.958333333333336  C 0 18.506944444444446  0.1738782051282051 18.123263888888886  0.5216346153846153 17.807291666666664  C 0.8693910256410258 17.491319444444446  1.2916666666666667 17.333333333333336  1.7884615384615385 17.333333333333336  L 10.451322115384615 17.333333333333336  L 12.966346153846155 19.635416666666668  C 13.686698717948719 20.26736111111111  14.53125 20.583333333333332  15.5 20.583333333333332  C 16.46875 20.583333333333332  17.31330128205128 20.26736111111111  18.033653846153847 19.635416666666668  L 20.56730769230769 17.333333333333336  L 29.21153846153846 17.333333333333336  C 29.70833333333334 17.333333333333336  30.130608974358978 17.491319444444446  30.478365384615383 17.807291666666664  Z M 23.846153846153847 8.666666666666668  C 24.36778846153846 8.666666666666668  24.734174679487182 8.88671875  24.9453125 9.326822916666668  C 25.156450320512825 9.789496527777777  25.069511217948723 10.184461805555555  24.68449519230769 10.51171875  L 16.338341346153847 18.095052083333336  C 16.114783653846153 18.309461805555554  15.835336538461538 18.416666666666664  15.5 18.416666666666664  C 15.164663461538462 18.416666666666664  14.885216346153845 18.309461805555554  14.661658653846155 18.095052083333336  L 6.3155048076923075 10.51171875  C 5.930488782051283 10.184461805555555  5.843549679487181 9.789496527777777  6.0546875 9.326822916666668  C 6.265825320512821 8.88671875  6.632211538461538 8.666666666666668  7.153846153846154 8.666666666666668  L 11.923076923076923 8.666666666666668  L 11.923076923076923 1.0833333333333324  C 11.923076923076923 0.789930555555552  12.041065705128206 0.536024305555552  12.27704326923077 0.32161458333333237  C 12.513020833333334 0.10720486111111271  12.792467948717949 0  13.115384615384615 0  L 17.884615384615383 0  C 18.20753205128205 0  18.486979166666668 0.10720486111111271  18.72295673076923 0.32161458333333237  C 18.958934294871796 0.536024305555552  19.076923076923077 0.789930555555552  19.076923076923077 1.0833333333333324  L 19.076923076923077 8.666666666666668  L 23.846153846153847 8.666666666666668  Z " fill-rule="nonzero" fill="#0000ff" stroke="none" transform="matrix(1 0 0 1 636 124 )" />
  </g>
</svg>