<?xml version="1.0" encoding="utf-8"?>
<svg version="1.1" xmlns:xlink="http://www.w3.org/1999/xlink" width="125px" height="103px" xmlns="http://www.w3.org/2000/svg">
  <g transform="matrix(1 0 0 1 -567 0 )">
    <path d="M 33.333333333333336 36.78571428571428  C 33.333333333333336 42.111979166666664  35.09114583333333 47.01674107142858  38.60677083333333 51.5  C 31.575520833333336 51.691592261904766  25.82465277777778 54.14397321428571  21.354166666666668 58.857142857142854  L 12.630208333333334 58.857142857142854  C 9.071180555555555 58.857142857142854  6.07638888888889 58.08119419642858  3.6458333333333335 56.529296875  C 1.2152777777777777 54.97739955357142  0 52.70703125  0 49.71819196428572  C 0 36.19177827380952  2.690972222222222 29.428571428571427  8.072916666666668 29.428571428571427  C 8.333333333333334 29.428571428571427  9.27734375 29.830915178571427  10.904947916666666 30.635602678571427  C 12.532552083333334 31.440290178571427  14.6484375 32.254557291666664  17.252604166666668 33.078404017857146  C 19.856770833333332 33.90225074404762  22.43923611111111 34.314174107142854  25 34.314174107142854  C 27.907986111111114 34.314174107142854  30.794270833333336 33.8735119047619  33.65885416666667 32.9921875  C 33.44184027777778 34.40997023809523  33.333333333333336 35.674479166666664  33.333333333333336 36.78571428571428  Z M 108.10546875 82.16434151785715  C 108.25737847222223 84.09942336309524  108.33333333333334 86.08240327380953  108.33333333333334 88.11328125  C 108.33333333333334 92.71149553571428  106.74913194444446 96.34216889880953  103.58072916666666 99.00530133928572  C 100.4123263888889 101.6684337797619  96.20225694444446 103  90.95052083333334 103  L 34.049479166666664 103  C 28.797743055555557 103  24.587673611111118 101.6684337797619  21.419270833333332 99.00530133928572  C 18.250868055555557 96.34216889880953  16.666666666666668 92.71149553571428  16.666666666666668 88.11328125  C 16.666666666666668 86.08240327380953  16.74262152777778 84.09942336309524  16.89453125 82.16434151785715  C 17.046440972222225 80.22925967261905  17.350260416666664 78.14090401785715  17.805989583333336 75.89927455357143  C 18.26171875 73.65764508928571  18.836805555555557 71.57886904761905  19.53125 69.66294642857143  C 20.225694444444446 67.7470238095238  21.158854166666668 65.87899925595237  22.330729166666668 64.05887276785715  C 23.502604166666668 62.2387462797619  24.84809027777778 60.68684895833333  26.3671875 59.40318080357142  C 27.886284722222225 58.119512648809526  29.741753472222225 57.094494047619044  31.933593750000004 56.328125  C 34.125434027777786 55.56175595238094  36.54513888888889 55.17857142857142  39.192708333333336 55.17857142857142  C 39.626736111111114 55.17857142857142  40.55989583333333 55.590494791666664  41.9921875 56.414341517857146  C 43.42447916666667 57.23818824404762  45.00868055555556 58.157831101190474  46.744791666666664 59.17327008928571  C 48.480902777777786 60.18870907738094  50.80295138888889 61.108351934523796  53.7109375 61.93219866071429  C 56.618923611111114 62.756045386904766  59.548611111111114 63.16796875  62.5 63.16796875  C 65.45138888888889 63.16796875  68.38107638888889 62.756045386904766  71.2890625 61.93219866071429  C 74.19704861111113 61.108351934523796  76.51909722222223 60.18870907738094  78.25520833333334 59.17327008928571  C 79.99131944444444 58.157831101190474  81.57552083333333 57.23818824404762  83.0078125 56.414341517857146  C 84.44010416666667 55.590494791666664  85.3732638888889 55.17857142857142  85.80729166666666 55.17857142857142  C 88.45486111111111 55.17857142857142  90.87456597222224 55.56175595238094  93.06640625 56.328125  C 95.25824652777779 57.094494047619044  97.11371527777777 58.119512648809526  98.6328125 59.40318080357142  C 100.15190972222224 60.68684895833333  101.49739583333334 62.2387462797619  102.66927083333334 64.05887276785715  C 103.84114583333333 65.87899925595237  104.77430555555557 67.7470238095238  105.46875 69.66294642857143  C 106.16319444444446 71.57886904761905  106.73828125 73.65764508928571  107.19401041666667 75.89927455357143  C 107.64973958333333 78.14090401785715  107.95355902777779 80.22925967261905  108.10546875 82.16434151785715  Z M 36.783854166666664 4.310825892857146  C 40.0390625 7.184709821428573  41.666666666666664 10.652529761904752  41.666666666666664 14.714285714285719  C 41.666666666666664 18.776041666666664  40.0390625 22.243861607142854  36.783854166666664 25.11774553571428  C 33.528645833333336 27.99162946428572  29.600694444444446 29.428571428571427  25 29.428571428571427  C 20.39930555555556 29.428571428571427  16.471354166666668 27.99162946428572  13.216145833333334 25.11774553571428  C 9.9609375 22.243861607142854  8.333333333333334 18.776041666666664  8.333333333333334 14.714285714285719  C 8.333333333333334 10.652529761904752  9.9609375 7.184709821428573  13.216145833333334 4.310825892857146  C 16.471354166666668 1.4369419642857193  20.39930555555556 0  25 0  C 29.600694444444446 0  33.528645833333336 1.4369419642857193  36.783854166666664 4.310825892857146  Z M 80.17578125 21.180524553571427  C 85.05859375 25.491350446428573  87.5 30.693080357142854  87.5 36.78571428571428  C 87.5 42.87834821428572  85.05859375 48.080078125  80.17578125 52.390904017857146  C 75.29296875 56.70172991071429  69.40104166666666 58.857142857142854  62.5 58.857142857142854  C 55.59895833333334 58.857142857142854  49.70703125000001 56.70172991071429  44.82421875 52.390904017857146  C 39.94140625 48.080078125  37.5 42.87834821428572  37.5 36.78571428571428  C 37.5 30.693080357142854  39.94140625 25.491350446428573  44.82421875 21.180524553571427  C 49.70703125000001 16.86969866071428  55.59895833333334 14.714285714285719  62.5 14.714285714285719  C 69.40104166666666 14.714285714285719  75.29296875 16.86969866071428  80.17578125 21.180524553571427  Z M 116.92708333333333 29.428571428571427  C 122.3090277777778 29.428571428571427  125.00000000000003 36.19177827380952  125 49.71819196428572  C 125.00000000000003 52.70703125  123.78472222222223 54.97739955357142  121.35416666666667 56.529296875  C 118.92361111111111 58.08119419642858  115.92881944444446 58.857142857142854  112.36979166666666 58.857142857142854  L 103.64583333333334 58.857142857142854  C 99.17534722222224 54.14397321428571  93.42447916666667 51.691592261904766  86.39322916666667 51.5  C 89.90885416666666 47.01674107142858  91.66666666666666 42.111979166666664  91.66666666666666 36.78571428571428  C 91.66666666666666 35.674479166666664  91.55815972222223 34.40997023809523  91.34114583333333 32.9921875  C 94.20572916666667 33.8735119047619  97.0920138888889 34.314174107142854  100 34.314174107142854  C 102.56076388888889 34.314174107142854  105.14322916666667 33.90225074404762  107.74739583333333 33.078404017857146  C 110.3515625 32.254557291666664  112.46744791666667 31.440290178571427  114.09505208333333 30.635602678571427  C 115.72265625 29.830915178571427  116.66666666666667 29.428571428571427  116.92708333333333 29.428571428571427  Z M 111.78385416666667 4.310825892857146  C 115.0390625 7.184709821428573  116.66666666666667 10.652529761904752  116.66666666666667 14.714285714285719  C 116.66666666666667 18.776041666666664  115.0390625 22.243861607142854  111.78385416666667 25.11774553571428  C 108.52864583333334 27.99162946428572  104.60069444444444 29.428571428571427  100 29.428571428571427  C 95.39930555555556 29.428571428571427  91.47135416666667 27.99162946428572  88.21614583333333 25.11774553571428  C 84.9609375 22.243861607142854  83.33333333333333 18.776041666666664  83.33333333333333 14.714285714285719  C 83.33333333333333 10.652529761904752  84.9609375 7.184709821428573  88.21614583333333 4.310825892857146  C 91.47135416666667 1.4369419642857193  95.39930555555556 0  100 0  C 104.60069444444444 0  108.52864583333334 1.4369419642857193  111.78385416666667 4.310825892857146  Z " fill-rule="nonzero" fill="#ff0000" stroke="none" transform="matrix(1 0 0 1 567 0 )" />
  </g>
</svg>