<?xml version="1.0" encoding="utf-8"?>
<svg version="1.1" xmlns:xlink="http://www.w3.org/1999/xlink" width="15px" height="18px" xmlns="http://www.w3.org/2000/svg">
  <g transform="matrix(1 0 0 1 -364 -495 )">
    <path d="M 9.19921875 11.0390625  C 9.989483173076923 10.090745192307692  10.384615384615385 8.94951923076923  10.384615384615385 7.615384615384617  C 10.384615384615385 6.281249999999998  9.989483173076923 5.140024038461537  9.19921875 4.191706730769231  C 8.408954326923078 3.2433894230769216  7.4579326923076925 2.769230769230769  6.346153846153846 2.769230769230769  C 5.234375000000001 2.769230769230769  4.283353365384616 3.2433894230769216  3.493088942307692 4.191706730769231  C 2.7028245192307696 5.140024038461537  2.307692307692308 6.281249999999998  2.307692307692308 7.615384615384617  C 2.307692307692308 8.94951923076923  2.7028245192307696 10.090745192307692  3.493088942307692 11.0390625  C 4.283353365384616 11.987379807692305  5.234375000000001 12.461538461538462  6.346153846153846 12.461538461538462  C 7.4579326923076925 12.461538461538462  8.408954326923078 11.987379807692305  9.19921875 11.0390625  Z M 14.666466346153847 15.641826923076923  C 14.888822115384617 15.908653846153847  15 16.233173076923077  15 16.615384615384617  C 15 16.990384615384617  14.885817307692308 17.314903846153847  14.657451923076923 17.588942307692307  C 14.42908653846154 17.86298076923077  14.158653846153847 18  13.846153846153847 18  C 13.521634615384615 18  13.251201923076923 17.86298076923077  13.034855769230768 17.588942307692307  L 9.942908653846153 13.889423076923077  C 8.8671875 14.783653846153847  7.668269230769232 15.23076923076923  6.346153846153846 15.23076923076923  C 5.486778846153847 15.23076923076923  4.6649639423076925 15.030649038461538  3.880709134615384 14.630408653846155  C 3.096454326923077 14.23016826923077  2.4203725961538463 13.689302884615383  1.8524639423076923 13.0078125  C 1.2845552884615385 12.326322115384617  0.8338341346153848 11.515024038461538  0.5003004807692307 10.57391826923077  C 0.16676682692307693 9.6328125  0 8.646634615384613  0 7.615384615384617  C 0 6.584134615384613  0.16676682692307693 5.597956730769231  0.5003004807692307 4.656850961538462  C 0.8338341346153848 3.7157451923076916  1.2845552884615385 2.9044471153846163  1.8524639423076923 2.222956730769231  C 2.4203725961538463 1.541466346153847  3.096454326923077 1.0006009615384612  3.880709134615384 0.6003605769230775  C 4.6649639423076925 0.20012019230769185  5.486778846153847 0  6.346153846153846 0  C 7.205528846153847 0  8.02734375 0.20012019230769185  8.811598557692308 0.6003605769230775  C 9.595853365384615 1.0006009615384612  10.271935096153847 1.541466346153847  10.83984375 2.222956730769231  C 11.407752403846153 2.9044471153846163  11.858473557692308 3.7157451923076916  12.192007211538462 4.656850961538462  C 12.525540865384615 5.597956730769231  12.692307692307692 6.584134615384613  12.692307692307692 7.615384615384617  C 12.692307692307692 9.201923076923077  12.31971153846154 10.640624999999998  11.574519230769232 11.931490384615383  L 14.666466346153847 15.641826923076923  Z " fill-rule="nonzero" fill="#9e9e9e" stroke="none" transform="matrix(1 0 0 1 364 495 )" />
  </g>
</svg>