<?xml version="1.0" encoding="utf-8"?>
<svg version="1.1" xmlns:xlink="http://www.w3.org/1999/xlink" width="32px" height="20px" xmlns="http://www.w3.org/2000/svg">
  <g>
    <path d="M 2.2857142857142856 10  C 4.273809523809524 12.55952380952381  6.815476190476191 14.419642857142856  9.910714285714286 15.580357142857144  L 11.303571428571429 13.482142857142856  C 10.267857142857142 12.857142857142856  9.458333333333334 12.068452380952381  8.875 11.116071428571427  C 8.291666666666668 10.163690476190476  8 9.15674603174603  8 8.095238095238095  C 8 6.89484126984127  8.363095238095239 5.77876984126984  9.089285714285714 4.747023809523809  C 6.363095238095239 5.907738095238095  4.095238095238096 7.658730158730158  2.2857142857142856 10  Z M 16.607142857142858 4.791666666666668  C 16.773809523809526 4.652777777777775  16.857142857142858 4.484126984126984  16.857142857142858 4.2857142857142865  C 16.857142857142858 4.087301587301586  16.773809523809526 3.918650793650793  16.607142857142858 3.7797619047619047  C 16.440476190476193 3.640873015873014  16.238095238095237 3.571428571428572  16 3.571428571428572  C 14.511904761904763 3.571428571428572  13.23511904761905 4.015376984126984  12.169642857142858 4.903273809523809  C 11.104166666666668 5.791170634920634  10.571428571428571 6.85515873015873  10.571428571428571 8.095238095238095  C 10.571428571428571 8.293650793650793  10.654761904761907 8.462301587301585  10.821428571428571 8.601190476190476  C 10.988095238095239 8.740079365079364  11.190476190476192 8.80952380952381  11.428571428571429 8.80952380952381  C 11.666666666666668 8.80952380952381  11.86904761904762 8.740079365079364  12.035714285714286 8.601190476190476  C 12.202380952380953 8.462301587301585  12.285714285714286 8.293650793650793  12.285714285714286 8.095238095238095  C 12.285714285714286 7.24206349206349  12.648809523809524 6.512896825396826  13.375 5.907738095238095  C 14.101190476190478 5.302579365079363  14.976190476190478 4.999999999999998  16 5  C 16.238095238095237 4.999999999999998  16.440476190476193 4.930555555555554  16.607142857142858 4.791666666666668  Z M 23.053571428571427 1.0416666666666674  C 23.24404761904762 1.140873015873014  23.339285714285715 1.274801587301586  23.339285714285715 1.4434523809523814  C 23.339285714285715 1.5128968253968234  23.333333333333336 1.5575396825396792  23.321428571428573 1.5773809523809534  C 22.059523809523814 3.4523809523809534  20.178571428571427 6.264880952380953  17.678571428571427 10.014880952380953  C 15.17857142857143 13.764880952380953  13.30357142857143 16.572420634920636  12.053571428571429 18.4375  L 11.178571428571429 19.761904761904763  C 11.05952380952381 19.92063492063492  10.892857142857142 20  10.678571428571429 20  C 10.535714285714286 20  9.738095238095239 19.65277777777778  8.285714285714286 18.958333333333332  C 8.095238095238097 18.859126984126984  8 18.720238095238095  8 18.541666666666668  C 8 18.422619047619047  8.261904761904763 17.991071428571427  8.785714285714286 17.24702380952381  C 7.083333333333334 16.602182539682538  5.514880952380953 15.744047619047619  4.080357142857143 14.672619047619047  C 2.6458333333333335 13.601190476190476  1.404761904761905 12.385912698412698  0.35714285714285715 11.026785714285714  C 0.11904761904761904 10.71924603174603  0 10.376984126984127  0 10  C 0 9.623015873015872  0.11904761904761904 9.280753968253968  0.35714285714285715 8.973214285714286  C 2.178571428571429 6.641865079365079  4.440476190476191 4.8015873015873005  7.142857142857143 3.4523809523809534  C 9.845238095238097 2.1031746031746024  12.79761904761905 1.428571428571428  16 1.428571428571428  C 17.05952380952381 1.428571428571428  18.130952380952383 1.5128968253968234  19.214285714285715 1.6815476190476186  L 20.178571428571427 0.23809523809523725  C 20.297619047619047 0.07936507936507908  20.464285714285715 0  20.678571428571427 0  C 20.73809523809524 0  20.8452380952381 0.029761904761904656  21 0.08928571428571397  C 21.154761904761905 0.14880952380952328  21.339285714285715 0.22569444444444198  21.553571428571427 0.3199404761904767  C 21.767857142857142 0.414186507936507  21.964285714285715 0.5059523809523814  22.142857142857142 0.5952380952380953  C 22.321428571428573 0.6845238095238093  22.508928571428573 0.7762896825396792  22.705357142857142 0.870535714285714  C 22.901785714285715 0.9647817460317443  23.017857142857142 1.0218253968253954  23.053571428571427 1.0416666666666674  Z M 23.857142857142858 6.845238095238095  C 23.952380952380956 7.291666666666668  24 7.708333333333332  24 8.095238095238095  C 24 9.474206349206348  23.529761904761905 10.731646825396822  22.589285714285715 11.867559523809524  C 21.648809523809526 13.003472222222221  20.404761904761905 13.819444444444443  18.857142857142858 14.31547619047619  L 23.857142857142858 6.845238095238095  Z M 31.642857142857142 8.973214285714286  C 31.880952380952383 9.310515873015872  32 9.652777777777777  32 10  C 32 10.347222222222221  31.880952380952383 10.689484126984127  31.642857142857142 11.026785714285714  C 31.178571428571427 11.661706349206346  30.529761904761905 12.380952380952381  29.696428571428573 13.18452380952381  C 27.910714285714285 14.89087301587302  25.842261904761905 16.21527777777778  23.491071428571427 17.157738095238095  C 21.139880952380956 18.10019841269841  18.642857142857142 18.571428571428573  16 18.571428571428573  L 17.321428571428573 16.607142857142854  C 19.8452380952381 16.428571428571427  22.18154761904762 15.749007936507935  24.330357142857142 14.568452380952381  C 26.479166666666668 13.387896825396822  28.273809523809526 11.865079365079364  29.714285714285715 10  C 28.3452380952381 8.224206349206348  26.666666666666668 6.765873015873016  24.678571428571427 5.625  L 25.803571428571427 3.9583333333333326  C 26.934523809523814 4.593253968253965  28.020833333333336 5.352182539682538  29.0625 6.235119047619047  C 30.104166666666668 7.118055555555554  30.964285714285715 8.030753968253968  31.642857142857142 8.973214285714286  Z " fill-rule="nonzero" fill="#000000" stroke="none" />
  </g>
</svg>