<?xml version="1.0" encoding="utf-8"?>
<svg version="1.1" xmlns:xlink="http://www.w3.org/1999/xlink" width="31px" height="26px" xmlns="http://www.w3.org/2000/svg">
  <g transform="matrix(1 0 0 1 -592 -124 )">
    <path d="M 23.4921875 23.61125  C 23.728165064102566 23.405416666666664  23.846153846153847 23.161666666666665  23.846153846153847 22.88  C 23.846153846153847 22.598333333333336  23.728165064102566 22.354583333333334  23.4921875 22.14875  C 23.256209935897438 21.942916666666665  22.976762820512825 21.84  22.653846153846153 21.84  C 22.330929487179485 21.84  22.051482371794872 21.942916666666665  21.81550480769231 22.14875  C 21.579527243589748 22.354583333333334  21.46153846153846 22.598333333333336  21.46153846153846 22.88  C 21.46153846153846 23.161666666666665  21.579527243589748 23.405416666666664  21.81550480769231 23.61125  C 22.051482371794872 23.817083333333336  22.330929487179485 23.92  22.653846153846153 23.92  C 22.976762820512825 23.92  23.256209935897438 23.817083333333336  23.4921875 23.61125  Z M 28.26141826923077 23.61125  C 28.497395833333332 23.405416666666664  28.615384615384617 23.161666666666665  28.615384615384617 22.88  C 28.615384615384617 22.598333333333336  28.497395833333332 22.354583333333334  28.26141826923077 22.14875  C 28.025440705128208 21.942916666666665  27.74599358974359 21.84  27.423076923076923 21.84  C 27.100160256410255 21.84  26.820713141025642 21.942916666666665  26.584735576923077 22.14875  C 26.348758012820518 22.354583333333334  26.23076923076923 22.598333333333336  26.23076923076923 22.88  C 26.23076923076923 23.161666666666665  26.348758012820518 23.405416666666664  26.584735576923077 23.61125  C 26.820713141025642 23.817083333333336  27.100160256410255 23.92  27.423076923076923 23.92  C 27.74599358974359 23.92  28.025440705128208 23.817083333333336  28.26141826923077 23.61125  Z M 30.478365384615383 18.135  C 30.826121794871796 18.43833333333333  31 18.806666666666665  31 19.24  L 31 24.439999999999998  C 31 24.873333333333335  30.826121794871796 25.241666666666667  30.478365384615383 25.545  C 30.130608974358978 25.848333333333336  29.70833333333334 26  29.21153846153846 26  L 1.7884615384615385 26  C 1.2916666666666667 26  0.8693910256410258 25.848333333333336  0.5216346153846153 25.545  C 0.1738782051282051 25.241666666666667  0 24.873333333333335  0 24.439999999999998  L 0 19.24  C 0 18.806666666666665  0.1738782051282051 18.43833333333333  0.5216346153846153 18.135  C 0.8693910256410258 17.831666666666667  1.2916666666666667 17.68  1.7884615384615385 17.68  L 9.743389423076923 17.68  C 10.00420673076923 18.28666666666667  10.442007211538462 18.784999999999997  11.056790865384615 19.175  C 11.67157451923077 19.564999999999998  12.357772435897436 19.76  13.115384615384615 19.76  L 17.884615384615383 19.76  C 18.642227564102566 19.76  19.32842548076923 19.564999999999998  19.943209134615383 19.175  C 20.55799278846154 18.784999999999997  20.99579326923077 18.28666666666667  21.256610576923077 17.68  L 29.21153846153846 17.68  C 29.70833333333334 17.68  30.130608974358978 17.831666666666667  30.478365384615383 18.135  Z M 24.68449519230769 7.58875  C 25.069511217948723 7.9137499999999985  25.156450320512825 8.2875  24.9453125 8.709999999999999  C 24.734174679487182 9.14333333333333  24.36778846153846 9.36  23.846153846153847 9.36  L 19.076923076923077 9.36  L 19.076923076923077 16.64  C 19.076923076923077 16.921666666666663  18.958934294871796 17.165416666666665  18.72295673076923 17.371250000000003  C 18.486979166666668 17.577083333333334  18.20753205128205 17.68  17.884615384615383 17.68  L 13.115384615384615 17.68  C 12.792467948717949 17.68  12.513020833333334 17.577083333333334  12.27704326923077 17.371250000000003  C 12.041065705128206 17.165416666666665  11.923076923076923 16.921666666666663  11.923076923076923 16.64  L 11.923076923076923 9.36  L 7.153846153846154 9.36  C 6.632211538461538 9.36  6.265825320512821 9.14333333333333  6.0546875 8.709999999999999  C 5.843549679487181 8.2875  5.930488782051283 7.9137499999999985  6.3155048076923075 7.58875  L 14.661658653846155 0.3087499999999992  C 14.885216346153845 0.10291666666666544  15.164663461538462 0  15.5 0  C 15.835336538461538 0  16.114783653846153 0.10291666666666544  16.338341346153847 0.3087499999999992  L 24.68449519230769 7.58875  Z " fill-rule="nonzero" fill="#0000ff" stroke="none" transform="matrix(1 0 0 1 592 124 )" />
  </g>
</svg>