<?xml version="1.0" encoding="utf-8"?>
<svg version="1.1" xmlns:xlink="http://www.w3.org/1999/xlink" width="300px" height="150px" xmlns="http://www.w3.org/2000/svg">
  <defs>
    <mask fill="white" id="clip24">
      <path d="M 135.00000000000003 135  L 149.99999999999997 150  L 164.99999999999994 135  L 300 135  L 300 0  L 0 0  L 0 135  L 135.00000000000003 135  Z " fill-rule="evenodd" />
    </mask>
  </defs>
  <g transform="matrix(1 0 0 1 -354 -29 )">
    <path d="M 135.00000000000003 135  L 149.99999999999997 150  L 164.99999999999994 135  L 300 135  L 300 0  L 0 0  L 0 135  L 135.00000000000003 135  Z " fill-rule="nonzero" fill="#ffffff" stroke="none" transform="matrix(1 0 0 1 354 29 )" />
    <path d="M 135.00000000000003 135  L 149.99999999999997 150  L 164.99999999999994 135  L 300 135  L 300 0  L 0 0  L 0 135  L 135.00000000000003 135  Z " stroke-width="2" stroke="#797979" fill="none" transform="matrix(1 0 0 1 354 29 )" mask="url(#clip24)" />
  </g>
</svg>