<?xml version="1.0" encoding="utf-8"?>
<svg version="1.1" xmlns:xlink="http://www.w3.org/1999/xlink" width="300px" height="40px" xmlns="http://www.w3.org/2000/svg">
  <g>
    <path d="M 15.43181073024934 0.49999999999999994  C 15.43181073024934 0.49999999999999994  12.252139431503274 0.7119780865830726  12.252139431503274 0.7119780865830726  C 12.252139431503274 0.7119780865830726  0.5229369165875686 20  0.5229369165875686 20  C 0.5229369165875686 20  12.252139431503274 39.28802191341693  12.252139431503274 39.28802191341693  C 12.252139431503274 39.28802191341693  15.43181073024934 39.5  15.43181073024934 39.5  C 15.43181073024934 39.5  295 39.5  295 39.5  C 297.52 39.5  299.5 37.519999999999996  299.5 35  C 299.5 35  299.5 5  299.5 5  C 299.5 2.48  297.52 0.5  295 0.5  C 295 0.5  15.43181073024934 0.49999999999999994  15.43181073024934 0.49999999999999994  Z " fill-rule="nonzero" fill="#d9001b" stroke="none" />
    <path d="M 15.43181073024934 0.49999999999999994  C 15.43181073024934 0.49999999999999994  12.252139431503274 0.7119780865830726  12.252139431503274 0.7119780865830726  C 12.252139431503274 0.7119780865830726  0.5229369165875686 20  0.5229369165875686 20  C 0.5229369165875686 20  12.252139431503274 39.28802191341693  12.252139431503274 39.28802191341693  C 12.252139431503274 39.28802191341693  15.43181073024934 39.5  15.43181073024934 39.5  C 15.43181073024934 39.5  295 39.5  295 39.5  C 297.52 39.5  299.5 37.519999999999996  299.5 35  C 299.5 35  299.5 5  299.5 5  C 299.5 2.48  297.52 0.5  295 0.5  C 295 0.5  15.43181073024934 0.49999999999999994  15.43181073024934 0.49999999999999994  Z " stroke-width="1" stroke="#797979" fill="none" />
  </g>
</svg>