<?xml version="1.0" encoding="utf-8"?>
<svg version="1.1" xmlns:xlink="http://www.w3.org/1999/xlink" width="290px" height="40px" xmlns="http://www.w3.org/2000/svg">
  <defs>
    <mask fill="white" id="clip33">
      <path d="M 0 32.55813953488372  L 0 7.441860465116279  C 0 3.274418604651159  2.6652741514360327 0  6.0574412532637085 0  L 160.52219321148826 0  L 208.1451612903226 0  L 283.94255874673627 0  C 287.33472584856395 0  290 3.274418604651159  290 7.441860465116279  L 290 32.55813953488372  C 290 36.725581395348826  287.33472584856395 40  283.94255874673627 40  L 6.0574412532637085 40  C 2.6652741514360327 40  0 36.725581395348826  0 32.55813953488372  Z " fill-rule="evenodd" />
    </mask>
  </defs>
  <g transform="matrix(1 0 0 1 -9 -40 )">
    <path d="M 0 32.55813953488372  L 0 7.441860465116279  C 0 3.274418604651159  2.6652741514360327 0  6.0574412532637085 0  L 160.52219321148826 0  L 208.1451612903226 0  L 283.94255874673627 0  C 287.33472584856395 0  290 3.274418604651159  290 7.441860465116279  L 290 32.55813953488372  C 290 36.725581395348826  287.33472584856395 40  283.94255874673627 40  L 6.0574412532637085 40  C 2.6652741514360327 40  0 36.725581395348826  0 32.55813953488372  Z " fill-rule="nonzero" fill="#00ffff" stroke="none" transform="matrix(1 0 0 1 9 40 )" />
    <path d="M 0 32.55813953488372  L 0 7.441860465116279  C 0 3.274418604651159  2.6652741514360327 0  6.0574412532637085 0  L 160.52219321148826 0  L 208.1451612903226 0  L 283.94255874673627 0  C 287.33472584856395 0  290 3.274418604651159  290 7.441860465116279  L 290 32.55813953488372  C 290 36.725581395348826  287.33472584856395 40  283.94255874673627 40  L 6.0574412532637085 40  C 2.6652741514360327 40  0 36.725581395348826  0 32.55813953488372  Z " stroke-width="2" stroke="#797979" fill="none" transform="matrix(1 0 0 1 9 40 )" mask="url(#clip33)" />
  </g>
</svg>