<?xml version="1.0" encoding="utf-8"?>
<svg version="1.1" xmlns:xlink="http://www.w3.org/1999/xlink" width="300px" height="40px" xmlns="http://www.w3.org/2000/svg">
  <g transform="matrix(1 0 0 1 -898 0 )">
    <path d="M 1182.5681892697507 0.49999999999999994  C 1182.5681892697507 0.49999999999999994  1185.7478605684967 0.7119780865830726  1185.7478605684967 0.7119780865830726  C 1185.7478605684967 0.7119780865830726  1197.4770630834123 20  1197.4770630834123 20  C 1197.4770630834123 20  1185.7478605684967 39.28802191341693  1185.7478605684967 39.28802191341693  C 1185.7478605684967 39.28802191341693  1182.5681892697507 39.5  1182.5681892697507 39.5  C 1182.5681892697507 39.5  903 39.5  903 39.5  C 900.48 39.5  898.5 37.519999999999996  898.5 35  C 898.5 35  898.5 5  898.5 5  C 898.5 2.48  900.48 0.5  903 0.5  C 903 0.5  1182.5681892697507 0.49999999999999994  1182.5681892697507 0.49999999999999994  Z " fill-rule="nonzero" fill="#ffff00" stroke="none" />
    <path d="M 1182.5681892697507 0.49999999999999994  C 1182.5681892697507 0.49999999999999994  1185.7478605684967 0.7119780865830726  1185.7478605684967 0.7119780865830726  C 1185.7478605684967 0.7119780865830726  1197.4770630834123 20  1197.4770630834123 20  C 1197.4770630834123 20  1185.7478605684967 39.28802191341693  1185.7478605684967 39.28802191341693  C 1185.7478605684967 39.28802191341693  1182.5681892697507 39.5  1182.5681892697507 39.5  C 1182.5681892697507 39.5  903 39.5  903 39.5  C 900.48 39.5  898.5 37.519999999999996  898.5 35  C 898.5 35  898.5 5  898.5 5  C 898.5 2.48  900.48 0.5  903 0.5  C 903 0.5  1182.5681892697507 0.49999999999999994  1182.5681892697507 0.49999999999999994  Z " stroke-width="1" stroke="#797979" fill="none" />
  </g>
</svg>