<?xml version="1.0" encoding="utf-8"?>
<svg version="1.1" xmlns:xlink="http://www.w3.org/1999/xlink" width="300px" height="40px" xmlns="http://www.w3.org/2000/svg">
  <g transform="matrix(1 0 0 1 -900 0 )">
    <path d="M 1184.5681892697507 0.49999999999999994  C 1184.5681892697507 0.49999999999999994  1187.7478605684967 0.7119780865830726  1187.7478605684967 0.7119780865830726  C 1187.7478605684967 0.7119780865830726  1199.4770630834123 20  1199.4770630834123 20  C 1199.4770630834123 20  1187.7478605684967 39.28802191341693  1187.7478605684967 39.28802191341693  C 1187.7478605684967 39.28802191341693  1184.5681892697507 39.5  1184.5681892697507 39.5  C 1184.5681892697507 39.5  905 39.5  905 39.5  C 902.48 39.5  900.5 37.519999999999996  900.5 35  C 900.5 35  900.5 5  900.5 5  C 900.5 2.48  902.48 0.5  905 0.5  C 905 0.5  1184.5681892697507 0.49999999999999994  1184.5681892697507 0.49999999999999994  Z " fill-rule="nonzero" fill="#0000ff" stroke="none" />
    <path d="M 1184.5681892697507 0.49999999999999994  C 1184.5681892697507 0.49999999999999994  1187.7478605684967 0.7119780865830726  1187.7478605684967 0.7119780865830726  C 1187.7478605684967 0.7119780865830726  1199.4770630834123 20  1199.4770630834123 20  C 1199.4770630834123 20  1187.7478605684967 39.28802191341693  1187.7478605684967 39.28802191341693  C 1187.7478605684967 39.28802191341693  1184.5681892697507 39.5  1184.5681892697507 39.5  C 1184.5681892697507 39.5  905 39.5  905 39.5  C 902.48 39.5  900.5 37.519999999999996  900.5 35  C 900.5 35  900.5 5  900.5 5  C 900.5 2.48  902.48 0.5  905 0.5  C 905 0.5  1184.5681892697507 0.49999999999999994  1184.5681892697507 0.49999999999999994  Z " stroke-width="1" stroke="#797979" fill="none" />
  </g>
</svg>