<?xml version="1.0" encoding="utf-8"?>
<svg version="1.1" xmlns:xlink="http://www.w3.org/1999/xlink" width="17px" height="21px" xmlns="http://www.w3.org/2000/svg">
  <defs>
    <mask fill="white" id="clip36">
      <path d="M 2.073631944989836 1.9340659340659225  L 2.073631944989836 0  L 16 0  L 16 11.340659340659329  L 14.780142586629658 11.340659340659329  L 14.780142586629658 13.230769230769226  L 13.787446442751543 13.230769230769226  L 13.787446442751543 15.491330664400323  C 13.79479974752103 15.491330664400323  12.456498279477938 15.219552933445964  9.848526187906801 15.491330664400323  C 7.240554096335663 15.763108395354731  6.039514317322633 19.635941061454844  3.809011870584154 19.975663225147827  C 1.578509423845694 20.31538538884082  0 16.98610818464951  0 16.98610818464951  L 0 3.9560439560439513  L 1.1029957154201155 3.9560439560439513  L 1.1029957154201155 1.9340659340659225  L 2.073631944989836 1.9340659340659225  Z " fill-rule="evenodd" />
    </mask>
  </defs>
  <g transform="matrix(1 0 0 1 -305 -9 )">
    <path d="M 2.073631944989836 1.9340659340659225  L 2.073631944989836 0  L 16 0  L 16 11.340659340659329  L 14.780142586629658 11.340659340659329  L 14.780142586629658 13.230769230769226  L 13.787446442751543 13.230769230769226  L 13.787446442751543 15.491330664400323  C 13.79479974752103 15.491330664400323  12.456498279477938 15.219552933445964  9.848526187906801 15.491330664400323  C 7.240554096335663 15.763108395354731  6.039514317322633 19.635941061454844  3.809011870584154 19.975663225147827  C 1.578509423845694 20.31538538884082  0 16.98610818464951  0 16.98610818464951  L 0 3.9560439560439513  L 1.1029957154201155 3.9560439560439513  L 1.1029957154201155 1.9340659340659225  L 2.073631944989836 1.9340659340659225  Z " fill-rule="nonzero" fill="#00ff00" stroke="none" transform="matrix(1 0 0 1 305 9 )" />
    <path d="M 2.073631944989836 1.9340659340659225  L 2.073631944989836 0  L 16 0  L 16 11.340659340659329  L 14.780142586629658 11.340659340659329  L 14.780142586629658 13.230769230769226  L 13.787446442751543 13.230769230769226  L 13.787446442751543 15.491330664400323  C 13.79479974752103 15.491330664400323  12.456498279477938 15.219552933445964  9.848526187906801 15.491330664400323  C 7.240554096335663 15.763108395354731  6.039514317322633 19.635941061454844  3.809011870584154 19.975663225147827  C 1.578509423845694 20.31538538884082  0 16.98610818464951  0 16.98610818464951  L 0 3.9560439560439513  L 1.1029957154201155 3.9560439560439513  L 1.1029957154201155 1.9340659340659225  L 2.073631944989836 1.9340659340659225  Z " stroke-width="2" stroke="#797979" fill="none" transform="matrix(1 0 0 1 305 9 )" mask="url(#clip36)" />
    <path d="M 13.787446442751543 3.9560439560439513  L 1.1250556297285197 3.978021978021971  M 2.073631944989836 1.9340659340659225  L 14.780142586629658 1.9560439560439515  M 14.76911262947547 11.340659340659329  L 14.780142586629658 1.9340659340659225  M 13.776416485597364 3.9560439560439513  L 13.776416485597364 13.230769230769226  " stroke-width="1" stroke="#797979" fill="none" transform="matrix(1 0 0 1 305 9 )" mask="url(#clip36)" />
  </g>
</svg>