<?xml version="1.0" encoding="utf-8"?>
<svg version="1.1" xmlns:xlink="http://www.w3.org/1999/xlink" width="40px" height="40px" xmlns="http://www.w3.org/2000/svg">
  <g transform="matrix(1 0 0 1 -451 -530 )">
    <path d="M 10 26  L 10 36  L 30 36  L 30 26  L 10 26  Z M 33 25.83333333333333  L 33 36.666666666666664  L 36 36.666666666666664  L 36 13.333333333333336  C 36.666666666666664 13.090277777777771  36.579861111111114 12.75607638888889  36.40625 12.330729166666664  C 36.23263888888889 11.905381944444443  36.05902777777778 11.605902777777771  35.885416666666664 11.432291666666664  L 28.567708333333336 4.114583333333335  C 28.39409722222223 3.9409722222222188  28.098958333333336 3.767361111111107  27.682291666666664 3.59375  C 27.265625 3.4201388888888884  26.927083333333336 3.333333333333335  26 3.333333333333335  L 26 14.166666666666664  C 26.666666666666664 14.86111111111111  26.42361111111111 15.45138888888889  25.9375 15.9375  C 25.45138888888889 16.42361111111111  24.86111111111111 16.666666666666664  24.166666666666664 17  L 9.166666666666666 17  C 8.472222222222223 16.666666666666664  7.8819444444444455 16.42361111111111  7.395833333333334 15.9375  C 6.909722222222223 15.45138888888889  6.666666666666666 14.86111111111111  7 14.166666666666664  L 7 3.333333333333335  L 4 3.333333333333335  L 4 36.666666666666664  L 7 36.666666666666664  L 7 25.83333333333333  C 6.666666666666666 25.138888888888886  6.909722222222223 24.548611111111107  7.395833333333334 24.0625  C 7.8819444444444455 23.576388888888886  8.472222222222223 23.33333333333333  9.166666666666666 23  L 30.833333333333336 23  C 31.527777777777782 23.33333333333333  32.11805555555556 23.576388888888886  32.604166666666664 24.0625  C 33.09027777777778 24.548611111111107  33.333333333333336 25.138888888888886  33 25.83333333333333  Z M 23.0859375 13.0859375  C 23.250868055555557 12.921006944444443  23.333333333333336 12.725694444444443  23.333333333333336 12.5  L 23.333333333333336 4.166666666666665  C 23.333333333333336 3.9409722222222188  23.250868055555557 3.7456597222222188  23.0859375 3.580729166666665  C 22.921006944444446 3.415798611111107  22.725694444444446 3.333333333333335  22.5 3.333333333333335  L 17.5 3.333333333333335  C 17.274305555555557 3.333333333333335  17.078993055555557 3.415798611111107  16.9140625 3.580729166666665  C 16.749131944444446 3.7456597222222188  16.666666666666668 3.9409722222222188  16.666666666666668 4.166666666666665  L 16.666666666666668 12.5  C 16.666666666666668 12.725694444444443  16.749131944444446 12.921006944444443  16.9140625 13.0859375  C 17.078993055555557 13.250868055555554  17.274305555555557 13.333333333333336  17.5 13.333333333333336  L 22.5 13.333333333333336  C 22.725694444444446 13.333333333333336  22.921006944444446 13.250868055555554  23.0859375 13.0859375  Z M 39.479166666666664 11.041666666666664  C 39.826388888888886 11.875  40 12.63888888888889  40 13.333333333333336  L 40 37.5  C 40 38.19444444444444  39.75694444444444 38.78472222222222  39.270833333333336 39.270833333333336  C 38.78472222222223 39.75694444444444  38.19444444444444 40  37.5 40  L 2.5 40  C 1.8055555555555558 40  1.215277777777778 39.75694444444444  0.7291666666666667 39.270833333333336  C 0.24305555555555552 38.78472222222222  0 38.19444444444444  0 37.5  L 0 2.5  C 0 1.8055555555555536  0.24305555555555552 1.2152777777777724  0.7291666666666667 0.7291666666666652  C 1.215277777777778 0.24305555555555358  1.8055555555555558 0  2.5 0  L 26.666666666666664 0  C 27.36111111111111 0  28.125 0.17361111111110716  28.958333333333336 0.5208333333333348  C 29.791666666666664 0.8680555555555536  30.451388888888893 1.2847222222222188  30.9375 1.7708333333333348  L 38.229166666666664 9.0625  C 38.71527777777778 9.548611111111107  39.13194444444444 10.208333333333336  39.479166666666664 11.041666666666664  Z " fill-rule="nonzero" fill="#d7d7d7" stroke="none" transform="matrix(1 0 0 1 451 530 )" />
  </g>
</svg>