<?xml version="1.0" encoding="utf-8"?>
<svg version="1.1" xmlns:xlink="http://www.w3.org/1999/xlink" width="18px" height="18px" viewBox="596 124  18 18" xmlns="http://www.w3.org/2000/svg">
  <path d="M 597.5 126  A 0.5 0.5 0 0 1 598 125.5 L 612 125.5  A 0.5 0.5 0 0 1 612.5 126 L 612.5 140  A 0.5 0.5 0 0 1 612 140.5 L 598 140.5  A 0.5 0.5 0 0 1 597.5 140 L 597.5 126  Z " fill-rule="nonzero" fill="#ffffff" stroke="none" fill-opacity="0" />
  <path d="M 597 126  A 1 1 0 0 1 598 125 L 612 125  A 1 1 0 0 1 613 126 L 613 140  A 1 1 0 0 1 612 141 L 598 141  A 1 1 0 0 1 597 140 L 597 126  Z " stroke-width="2" stroke="#797979" fill="none" />
</svg>