<?xml version="1.0" encoding="utf-8"?>
<svg version="1.1" xmlns:xlink="http://www.w3.org/1999/xlink" width="18px" height="18px" viewBox="596 202  18 18" xmlns="http://www.w3.org/2000/svg">
  <path d="M 597.5 204  A 0.5 0.5 0 0 1 598 203.5 L 612 203.5  A 0.5 0.5 0 0 1 612.5 204 L 612.5 218  A 0.5 0.5 0 0 1 612 218.5 L 598 218.5  A 0.5 0.5 0 0 1 597.5 218 L 597.5 204  Z " fill-rule="nonzero" fill="#ffffff" stroke="none" fill-opacity="0" />
  <path d="M 597 204  A 1 1 0 0 1 598 203 L 612 203  A 1 1 0 0 1 613 204 L 613 218  A 1 1 0 0 1 612 219 L 598 219  A 1 1 0 0 1 597 218 L 597 204  Z " stroke-width="2" stroke="#797979" fill="none" />
</svg>