<?xml version="1.0" encoding="utf-8"?>
<svg version="1.1" xmlns:xlink="http://www.w3.org/1999/xlink" width="505px" height="225px" xmlns="http://www.w3.org/2000/svg">
  <g transform="matrix(1 0 0 1 -16 -15 )">
    <path d="M 134.66666666666666 80.35714285714285  C 134.66666666666666 91.99218749999999  141.76822916666666 102.70647321428572  155.97135416666666 112.5  C 127.56510416666667 112.91852678571429  104.33159722222223 118.27566964285712  86.27083333333333 128  L 51.026041666666664 128  C 36.64756944444444 128.57142857142856  24.548611111111114 126.87639508928572  14.729166666666666 123.486328125  C 4.909722222222221 120.09626116071428  0 115.13671875  0 108.60770089285715  C 0 79.05970982142856  10.871527777777777 64.28571428571428  32.614583333333336 64.28571428571428  C 33.666666666666664 64.28571428571428  37.48046875 65.16462053571428  44.05598958333333 66.92243303571428  C 50.63151041666667 68.68024553571428  59.1796875 70.45898437499999  69.70052083333334 72.25864955357143  C 80.22135416666666 74.05831473214286  90.65451388888889 74.95814732142857  101 74.95814732142857  C 112.7482638888889 74.95814732142857  124.40885416666667 73.99553571428571  135.98177083333334 72.0703125  C 135.10503472222223 75.16741071428568  134.66666666666666 77.92968749999999  134.66666666666666 80.35714285714285  Z M 436.74609375 179.48521205357144  C 437.3598090277778 183.71233258928572  437.6666666666667 188.04408482142858  437.6666666666667 192.48046875  C 437.6666666666667 202.52511160714283  431.2664930555556 210.45619419642858  418.4661458333333 216.27371651785717  C 405.66579861111114 222.0912388392857  388.6571180555556 225  367.4401041666667 225  L 137.55989583333334 225  C 116.34288194444446 225  99.33420138888891 222.0912388392857  86.53385416666667 216.27371651785717  C 73.73350694444444 210.45619419642858  67.33333333333333 202.52511160714283  67.33333333333333 192.48046875  C 67.33333333333333 188.04408482142858  67.64019097222223 183.71233258928572  68.25390625 179.48521205357144  C 68.86762152777779 175.25809151785714  70.09505208333333 170.69614955357144  71.93619791666667 165.79938616071428  C 73.77734375 160.90262276785714  76.10069444444446 156.36160714285714  78.90625 152.17633928571428  C 81.71180555555556 147.99107142857142  85.48177083333334 143.9104352678571  90.21614583333333 139.93443080357144  C 94.95052083333333 135.9584263392857  100.38628472222223 132.56835937499997  106.5234375 129.76422991071428  C 112.66059027777779 126.96010044642858  120.15668402777779 124.72098214285714  129.01171875 123.046875  C 137.86675347222226 121.37276785714283  147.64236111111111 120.53571428571428  158.33854166666666 120.53571428571428  C 160.0920138888889 120.53571428571428  163.86197916666666 121.43554687499999  169.6484375 123.23521205357143  C 175.43489583333334 125.03487723214286  181.83506944444446 127.04380580357142  188.84895833333334 129.26199776785714  C 195.86284722222226 131.48018973214283  205.24392361111111 133.48911830357142  216.9921875 135.28878348214286  C 228.7404513888889 137.08844866071428  240.5763888888889 137.98828125  252.5 137.98828125  C 264.42361111111114 137.98828125  276.25954861111114 137.08844866071428  288.0078125 135.28878348214286  C 299.7560763888889 133.48911830357142  309.1371527777778 131.48018973214283  316.1510416666667 129.26199776785714  C 323.16493055555554 127.04380580357142  329.5651041666667 125.03487723214286  335.3515625 123.23521205357143  C 341.1380208333333 121.43554687499999  344.90798611111114 120.53571428571428  346.6614583333333 120.53571428571428  C 357.3576388888889 120.53571428571428  367.1332465277778 121.37276785714283  375.98828125 123.046875  C 384.84331597222223 124.72098214285714  392.33940972222223 126.96010044642858  398.4765625 129.76422991071428  C 404.6137152777778 132.56835937499997  410.0494791666667 135.9584263392857  414.7838541666667 139.93443080357144  C 419.51822916666663 143.9104352678571  423.2881944444445 147.99107142857142  426.09375 152.17633928571428  C 428.8993055555556 156.36160714285714  431.22265625 160.90262276785714  433.0638020833333 165.79938616071428  C 434.9049479166667 170.69614955357144  436.13237847222223 175.25809151785714  436.74609375 179.48521205357144  Z M 148.60677083333331 9.416852678571436  C 161.7578125 15.694754464285717  168.33333333333331 23.270089285714267  168.33333333333331 32.14285714285715  C 168.33333333333331 41.01562499999999  161.7578125 48.59095982142856  148.60677083333331 54.86886160714285  C 135.45572916666669 61.14676339285715  119.58680555555557 64.28571428571428  101 64.28571428571428  C 82.41319444444446 64.28571428571428  66.54427083333333 61.14676339285715  53.393229166666664 54.86886160714285  C 40.2421875 48.59095982142856  33.666666666666664 41.01562499999999  33.666666666666664 32.14285714285715  C 33.666666666666664 23.270089285714267  40.2421875 15.694754464285717  53.393229166666664 9.416852678571436  C 66.54427083333333 3.1389508928571535  82.41319444444446 0  101 0  C 119.58680555555557 0  135.45572916666669 3.1389508928571535  148.60677083333331 9.416852678571436  Z M 323.91015625 46.268136160714285  C 343.63671875 55.684988839285715  353.5 67.04799107142857  353.5 80.35714285714285  C 353.5 93.66629464285715  343.63671875 105.029296875  323.91015625 114.44614955357143  C 304.18359375 123.86300223214288  280.3802083333333 128.57142857142856  252.5 128.57142857142856  C 224.6197916666667 128.57142857142856  200.81640625000003 123.86300223214288  181.08984375 114.44614955357143  C 161.36328125 105.029296875  151.5 93.66629464285715  151.5 80.35714285714285  C 151.5 67.04799107142857  161.36328125 55.684988839285715  181.08984375 46.268136160714285  C 200.81640625000003 36.85128348214285  224.6197916666667 32.14285714285715  252.5 32.14285714285715  C 280.3802083333333 32.14285714285715  304.18359375 36.85128348214285  323.91015625 46.268136160714285  Z M 472.3854166666667 64.28571428571428  C 494.12847222222234 64.28571428571428  505.0000000000001 79.05970982142856  505 108.60770089285715  C 505.0000000000001 115.13671875  500.09027777777777 120.09626116071428  490.2708333333333 123.486328125  C 480.4513888888889 126.87639508928572  468.3524305555556 128.57142857142856  453.9739583333333 128  L 418.7291666666667 128  C 400.6684027777778 118.27566964285712  377.43489583333337 112.91852678571429  349.0286458333333 112.5  C 363.2317708333333 102.70647321428572  370.3333333333333 91.99218749999999  370.3333333333333 80.35714285714285  C 370.3333333333333 77.92968749999999  369.89496527777777 75.16741071428568  369.0182291666667 72.0703125  C 380.5911458333333 73.99553571428571  392.25173611111114 74.95814732142857  404 74.95814732142857  C 414.34548611111114 74.95814732142857  424.77864583333337 74.05831473214286  435.29947916666663 72.25864955357143  C 445.8203125 70.45898437499999  454.36848958333337 68.68024553571428  460.94401041666663 66.92243303571428  C 467.51953125 65.16462053571428  471.3333333333333 64.28571428571428  472.3854166666667 64.28571428571428  Z M 451.6067708333333 9.416852678571436  C 464.7578125 15.694754464285717  471.3333333333333 23.270089285714267  471.3333333333333 32.14285714285715  C 471.3333333333333 41.01562499999999  464.7578125 48.59095982142856  451.6067708333333 54.86886160714285  C 438.4557291666667 61.14676339285715  422.58680555555554 64.28571428571428  404 64.28571428571428  C 385.41319444444446 64.28571428571428  369.54427083333337 61.14676339285715  356.39322916666663 54.86886160714285  C 343.2421875 48.59095982142856  336.66666666666663 41.01562499999999  336.66666666666663 32.14285714285715  C 336.66666666666663 23.270089285714267  343.2421875 15.694754464285717  356.39322916666663 9.416852678571436  C 369.54427083333337 3.1389508928571535  385.41319444444446 0  404 0  C 422.58680555555554 0  438.4557291666667 3.1389508928571535  451.6067708333333 9.416852678571436  Z " fill-rule="nonzero" fill="#0000ff" stroke="none" transform="matrix(1 0 0 1 16 15 )" />
  </g>
</svg>