<?xml version="1.0" encoding="utf-8"?>
<svg version="1.1" xmlns:xlink="http://www.w3.org/1999/xlink" width="123px" height="104px" xmlns="http://www.w3.org/2000/svg">
  <g transform="matrix(1 0 0 1 -12 -23 )">
    <path d="M 32.8 37.14285714285714  C 32.8 42.52083333333333  34.529687499999994 47.473214285714285  37.989062499999996 52  C 31.070312500000004 52.19345238095238  25.411458333333336 54.66964285714285  21.0125 59.42857142857142  L 12.428125 59.42857142857142  C 8.926041666666666 59.42857142857142  5.979166666666668 58.645089285714285  3.5875 57.078125  C 1.195833333333333 55.511160714285715  0 53.21875  0 50.20089285714286  C 0 36.54315476190475  2.6479166666666663 29.71428571428571  7.9437500000000005 29.71428571428571  C 8.2 29.71428571428571  9.12890625 30.12053571428571  10.73046875 30.93303571428571  C 12.33203125 31.74553571428571  14.4140625 32.56770833333333  16.9765625 33.39955357142858  C 19.5390625 34.23139880952381  22.080208333333335 34.64732142857142  24.6 34.64732142857142  C 27.461458333333336 34.64732142857142  30.301562500000003 34.20238095238095  33.120312500000004 33.3125  C 32.90677083333333 34.744047619047606  32.8 36.02083333333333  32.8 37.14285714285714  Z M 106.37578125 82.96205357142857  C 106.52526041666668 84.91592261904762  106.60000000000001 86.91815476190476  106.60000000000001 88.96875  C 106.60000000000001 93.61160714285714  105.04114583333335 97.27752976190476  101.92343749999999 99.96651785714286  C 98.80572916666668 102.65550595238095  94.66302083333335 104  89.49531250000001 104  L 33.5046875 104  C 28.33697916666667 104  24.194270833333338 102.65550595238095  21.0765625 99.96651785714286  C 17.95885416666667 97.27752976190476  16.4 93.61160714285714  16.4 88.96875  C 16.4 86.91815476190476  16.474739583333335 84.91592261904762  16.62421875 82.96205357142857  C 16.77369791666667 81.00818452380952  17.072656249999998 78.89955357142857  17.521093750000002 76.63616071428571  C 17.96953125 74.37276785714285  18.53541666666667 72.27380952380952  19.21875 70.33928571428571  C 19.902083333333334 68.4047619047619  20.8203125 66.51860119047618  21.9734375 64.68080357142857  C 23.1265625 62.84300595238095  24.450520833333336 61.27604166666666  25.9453125 59.979910714285715  C 27.440104166666668 58.683779761904766  29.26588541666667 57.64880952380952  31.422656250000003 56.875  C 33.579427083333336 56.10119047619047  35.96041666666667 55.714285714285715  38.565625 55.714285714285715  C 38.99270833333334 55.714285714285715  39.910937499999996 56.13020833333333  41.3203125 56.96205357142858  C 42.729687500000004 57.79389880952381  44.28854166666667 58.722470238095234  45.996875 59.74776785714285  C 47.70520833333334 60.77306547619047  49.99010416666667 61.70163690476189  52.8515625 62.53348214285715  C 55.71302083333334 63.36532738095238  58.59583333333334 63.78125  61.5 63.78125  C 64.40416666666667 63.78125  67.28697916666667 63.36532738095238  70.1484375 62.53348214285715  C 73.00989583333335 61.70163690476189  75.29479166666668 60.77306547619047  77.00312500000001 59.74776785714285  C 78.71145833333334 58.722470238095234  80.2703125 57.79389880952381  81.6796875 56.96205357142858  C 83.0890625 56.13020833333333  84.00729166666667 55.714285714285715  84.43437499999999 55.714285714285715  C 87.03958333333334 55.714285714285715  89.42057291666669 56.10119047619047  91.57734375 56.875  C 93.73411458333334 57.64880952380952  95.55989583333333 58.683779761904766  97.0546875 59.979910714285715  C 98.54947916666669 61.27604166666666  99.87343750000001 62.84300595238095  101.02656250000001 64.68080357142857  C 102.1796875 66.51860119047618  103.09791666666668 68.4047619047619  103.78125 70.33928571428571  C 104.46458333333335 72.27380952380952  105.03046875 74.37276785714285  105.47890625 76.63616071428571  C 105.92734375 78.89955357142857  106.22630208333334 81.00818452380952  106.37578125 82.96205357142857  Z M 36.1953125 4.352678571428575  C 39.3984375 7.254464285714287  41 10.755952380952372  41 14.857142857142861  C 41 18.95833333333333  39.3984375 22.459821428571423  36.1953125 25.36160714285714  C 32.9921875 28.26339285714286  29.127083333333335 29.71428571428571  24.6 29.71428571428571  C 20.07291666666667 29.71428571428571  16.2078125 28.26339285714286  13.0046875 25.36160714285714  C 9.8015625 22.459821428571423  8.2 18.95833333333333  8.2 14.857142857142861  C 8.2 10.755952380952372  9.8015625 7.254464285714287  13.0046875 4.352678571428575  C 16.2078125 1.450892857142862  20.07291666666667 0  24.6 0  C 29.127083333333335 0  32.9921875 1.450892857142862  36.1953125 4.352678571428575  Z M 78.89296875 21.38616071428571  C 83.69765625 25.73883928571429  86.1 30.991071428571423  86.1 37.14285714285714  C 86.1 43.29464285714286  83.69765625 48.546875  78.89296875 52.89955357142858  C 74.08828125 57.25223214285715  68.29062499999999 59.42857142857142  61.5 59.42857142857142  C 54.70937500000001 59.42857142857142  48.911718750000006 57.25223214285715  44.10703125 52.89955357142858  C 39.30234375 48.546875  36.9 43.29464285714286  36.9 37.14285714285714  C 36.9 30.991071428571423  39.30234375 25.73883928571429  44.10703125 21.38616071428571  C 48.911718750000006 17.03348214285714  54.70937500000001 14.857142857142861  61.5 14.857142857142861  C 68.29062499999999 14.857142857142861  74.08828125 17.03348214285714  78.89296875 21.38616071428571  Z M 115.05625 29.71428571428571  C 120.35208333333335 29.71428571428571  123.00000000000003 36.54315476190475  123 50.20089285714286  C 123.00000000000003 53.21875  121.80416666666667 55.511160714285715  119.4125 57.078125  C 117.02083333333334 58.645089285714285  114.07395833333335 59.42857142857142  110.57187499999999 59.42857142857142  L 101.98750000000001 59.42857142857142  C 97.58854166666669 54.66964285714285  91.9296875 52.19345238095238  85.0109375 52  C 88.47031249999999 47.473214285714285  90.19999999999999 42.52083333333333  90.19999999999999 37.14285714285714  C 90.19999999999999 36.02083333333333  90.09322916666667 34.744047619047606  89.8796875 33.3125  C 92.6984375 34.20238095238095  95.53854166666667 34.64732142857142  98.4 34.64732142857142  C 100.91979166666667 34.64732142857142  103.4609375 34.23139880952381  106.0234375 33.39955357142858  C 108.5859375 32.56770833333333  110.66796875 31.74553571428571  112.26953125 30.93303571428571  C 113.87109375 30.12053571428571  114.8 29.71428571428571  115.05625 29.71428571428571  Z M 109.9953125 4.352678571428575  C 113.1984375 7.254464285714287  114.8 10.755952380952372  114.8 14.857142857142861  C 114.8 18.95833333333333  113.1984375 22.459821428571423  109.9953125 25.36160714285714  C 106.79218750000001 28.26339285714286  102.92708333333334 29.71428571428571  98.4 29.71428571428571  C 93.87291666666667 29.71428571428571  90.0078125 28.26339285714286  86.8046875 25.36160714285714  C 83.6015625 22.459821428571423  82 18.95833333333333  82 14.857142857142861  C 82 10.755952380952372  83.6015625 7.254464285714287  86.8046875 4.352678571428575  C 90.0078125 1.450892857142862  93.87291666666667 0  98.4 0  C 102.92708333333334 0  106.79218750000001 1.450892857142862  109.9953125 4.352678571428575  Z " fill-rule="nonzero" fill="#ff0000" stroke="none" transform="matrix(1 0 0 1 12 23 )" />
  </g>
</svg>