<?xml version="1.0" encoding="utf-8"?>
<svg version="1.1" xmlns:xlink="http://www.w3.org/1999/xlink" width="18px" height="18px" viewBox="791 315  18 18" xmlns="http://www.w3.org/2000/svg">
  <path d="M 792.5 317  A 0.5 0.5 0 0 1 793 316.5 L 807 316.5  A 0.5 0.5 0 0 1 807.5 317 L 807.5 331  A 0.5 0.5 0 0 1 807 331.5 L 793 331.5  A 0.5 0.5 0 0 1 792.5 331 L 792.5 317  Z " fill-rule="nonzero" fill="#ffffff" stroke="none" fill-opacity="0" />
  <path d="M 792 317  A 1 1 0 0 1 793 316 L 807 316  A 1 1 0 0 1 808 317 L 808 331  A 1 1 0 0 1 807 332 L 793 332  A 1 1 0 0 1 792 331 L 792 317  Z " stroke-width="2" stroke="#797979" fill="none" />
</svg>