<?xml version="1.0" encoding="utf-8"?>
<svg version="1.1" xmlns:xlink="http://www.w3.org/1999/xlink" width="18px" height="18px" viewBox="791 276  18 18" xmlns="http://www.w3.org/2000/svg">
  <path d="M 792.5 278  A 0.5 0.5 0 0 1 793 277.5 L 807 277.5  A 0.5 0.5 0 0 1 807.5 278 L 807.5 292  A 0.5 0.5 0 0 1 807 292.5 L 793 292.5  A 0.5 0.5 0 0 1 792.5 292 L 792.5 278  Z " fill-rule="nonzero" fill="#ffffff" stroke="none" fill-opacity="0" />
  <path d="M 792 278  A 1 1 0 0 1 793 277 L 807 277  A 1 1 0 0 1 808 278 L 808 292  A 1 1 0 0 1 807 293 L 793 293  A 1 1 0 0 1 792 292 L 792 278  Z " stroke-width="2" stroke="#797979" fill="none" />
</svg>