<?xml version="1.0" encoding="utf-8"?>
<svg version="1.1" xmlns:xlink="http://www.w3.org/1999/xlink" width="18px" height="18px" viewBox="791 354  18 18" xmlns="http://www.w3.org/2000/svg">
  <path d="M 792.5 356  A 0.5 0.5 0 0 1 793 355.5 L 807 355.5  A 0.5 0.5 0 0 1 807.5 356 L 807.5 370  A 0.5 0.5 0 0 1 807 370.5 L 793 370.5  A 0.5 0.5 0 0 1 792.5 370 L 792.5 356  Z " fill-rule="nonzero" fill="#ffffff" stroke="none" fill-opacity="0" />
  <path d="M 792 356  A 1 1 0 0 1 793 355 L 807 355  A 1 1 0 0 1 808 356 L 808 370  A 1 1 0 0 1 807 371 L 793 371  A 1 1 0 0 1 792 370 L 792 356  Z " stroke-width="2" stroke="#797979" fill="none" />
</svg>