<?xml version="1.0" encoding="utf-8"?>
<svg version="1.1" xmlns:xlink="http://www.w3.org/1999/xlink" width="125px" height="104px" xmlns="http://www.w3.org/2000/svg">
  <g transform="matrix(1 0 0 1 -11 -23 )">
    <path d="M 33.333333333333336 37.14285714285714  C 33.333333333333336 42.52083333333333  35.09114583333333 47.473214285714285  38.60677083333333 52  C 31.575520833333336 52.19345238095238  25.82465277777778 54.66964285714285  21.354166666666668 59.42857142857142  L 12.630208333333334 59.42857142857142  C 9.071180555555555 59.42857142857142  6.07638888888889 58.645089285714285  3.6458333333333335 57.078125  C 1.2152777777777777 55.511160714285715  0 53.21875  0 50.20089285714286  C 0 36.54315476190475  2.690972222222222 29.71428571428571  8.072916666666668 29.71428571428571  C 8.333333333333334 29.71428571428571  9.27734375 30.12053571428571  10.904947916666666 30.93303571428571  C 12.532552083333334 31.74553571428571  14.6484375 32.56770833333333  17.252604166666668 33.39955357142858  C 19.856770833333332 34.23139880952381  22.43923611111111 34.64732142857142  25 34.64732142857142  C 27.907986111111114 34.64732142857142  30.794270833333336 34.20238095238095  33.65885416666667 33.3125  C 33.44184027777778 34.744047619047606  33.333333333333336 36.02083333333333  33.333333333333336 37.14285714285714  Z M 108.10546875 82.96205357142857  C 108.25737847222223 84.91592261904762  108.33333333333334 86.91815476190476  108.33333333333334 88.96875  C 108.33333333333334 93.61160714285714  106.74913194444446 97.27752976190476  103.58072916666666 99.96651785714286  C 100.4123263888889 102.65550595238095  96.20225694444446 104  90.95052083333334 104  L 34.049479166666664 104  C 28.797743055555557 104  24.587673611111118 102.65550595238095  21.419270833333332 99.96651785714286  C 18.250868055555557 97.27752976190476  16.666666666666668 93.61160714285714  16.666666666666668 88.96875  C 16.666666666666668 86.91815476190476  16.74262152777778 84.91592261904762  16.89453125 82.96205357142857  C 17.046440972222225 81.00818452380952  17.350260416666664 78.89955357142857  17.805989583333336 76.63616071428571  C 18.26171875 74.37276785714285  18.836805555555557 72.27380952380952  19.53125 70.33928571428571  C 20.225694444444446 68.4047619047619  21.158854166666668 66.51860119047618  22.330729166666668 64.68080357142857  C 23.502604166666668 62.84300595238095  24.84809027777778 61.27604166666666  26.3671875 59.979910714285715  C 27.886284722222225 58.683779761904766  29.741753472222225 57.64880952380952  31.933593750000004 56.875  C 34.125434027777786 56.10119047619047  36.54513888888889 55.714285714285715  39.192708333333336 55.714285714285715  C 39.626736111111114 55.714285714285715  40.55989583333333 56.13020833333333  41.9921875 56.96205357142858  C 43.42447916666667 57.79389880952381  45.00868055555556 58.722470238095234  46.744791666666664 59.74776785714285  C 48.480902777777786 60.77306547619047  50.80295138888889 61.70163690476189  53.7109375 62.53348214285715  C 56.618923611111114 63.36532738095238  59.548611111111114 63.78125  62.5 63.78125  C 65.45138888888889 63.78125  68.38107638888889 63.36532738095238  71.2890625 62.53348214285715  C 74.19704861111113 61.70163690476189  76.51909722222223 60.77306547619047  78.25520833333334 59.74776785714285  C 79.99131944444444 58.722470238095234  81.57552083333333 57.79389880952381  83.0078125 56.96205357142858  C 84.44010416666667 56.13020833333333  85.3732638888889 55.714285714285715  85.80729166666666 55.714285714285715  C 88.45486111111111 55.714285714285715  90.87456597222224 56.10119047619047  93.06640625 56.875  C 95.25824652777779 57.64880952380952  97.11371527777777 58.683779761904766  98.6328125 59.979910714285715  C 100.15190972222224 61.27604166666666  101.49739583333334 62.84300595238095  102.66927083333334 64.68080357142857  C 103.84114583333333 66.51860119047618  104.77430555555557 68.4047619047619  105.46875 70.33928571428571  C 106.16319444444446 72.27380952380952  106.73828125 74.37276785714285  107.19401041666667 76.63616071428571  C 107.64973958333333 78.89955357142857  107.95355902777779 81.00818452380952  108.10546875 82.96205357142857  Z M 36.783854166666664 4.352678571428575  C 40.0390625 7.254464285714287  41.666666666666664 10.755952380952372  41.666666666666664 14.857142857142861  C 41.666666666666664 18.95833333333333  40.0390625 22.459821428571423  36.783854166666664 25.36160714285714  C 33.528645833333336 28.26339285714286  29.600694444444446 29.71428571428571  25 29.71428571428571  C 20.39930555555556 29.71428571428571  16.471354166666668 28.26339285714286  13.216145833333334 25.36160714285714  C 9.9609375 22.459821428571423  8.333333333333334 18.95833333333333  8.333333333333334 14.857142857142861  C 8.333333333333334 10.755952380952372  9.9609375 7.254464285714287  13.216145833333334 4.352678571428575  C 16.471354166666668 1.450892857142862  20.39930555555556 0  25 0  C 29.600694444444446 0  33.528645833333336 1.450892857142862  36.783854166666664 4.352678571428575  Z M 80.17578125 21.38616071428571  C 85.05859375 25.73883928571429  87.5 30.991071428571423  87.5 37.14285714285714  C 87.5 43.29464285714286  85.05859375 48.546875  80.17578125 52.89955357142858  C 75.29296875 57.25223214285715  69.40104166666666 59.42857142857142  62.5 59.42857142857142  C 55.59895833333334 59.42857142857142  49.70703125000001 57.25223214285715  44.82421875 52.89955357142858  C 39.94140625 48.546875  37.5 43.29464285714286  37.5 37.14285714285714  C 37.5 30.991071428571423  39.94140625 25.73883928571429  44.82421875 21.38616071428571  C 49.70703125000001 17.03348214285714  55.59895833333334 14.857142857142861  62.5 14.857142857142861  C 69.40104166666666 14.857142857142861  75.29296875 17.03348214285714  80.17578125 21.38616071428571  Z M 116.92708333333333 29.71428571428571  C 122.3090277777778 29.71428571428571  125.00000000000003 36.54315476190475  125 50.20089285714286  C 125.00000000000003 53.21875  123.78472222222223 55.511160714285715  121.35416666666667 57.078125  C 118.92361111111111 58.645089285714285  115.92881944444446 59.42857142857142  112.36979166666666 59.42857142857142  L 103.64583333333334 59.42857142857142  C 99.17534722222224 54.66964285714285  93.42447916666667 52.19345238095238  86.39322916666667 52  C 89.90885416666666 47.473214285714285  91.66666666666666 42.52083333333333  91.66666666666666 37.14285714285714  C 91.66666666666666 36.02083333333333  91.55815972222223 34.744047619047606  91.34114583333333 33.3125  C 94.20572916666667 34.20238095238095  97.0920138888889 34.64732142857142  100 34.64732142857142  C 102.56076388888889 34.64732142857142  105.14322916666667 34.23139880952381  107.74739583333333 33.39955357142858  C 110.3515625 32.56770833333333  112.46744791666667 31.74553571428571  114.09505208333333 30.93303571428571  C 115.72265625 30.12053571428571  116.66666666666667 29.71428571428571  116.92708333333333 29.71428571428571  Z M 111.78385416666667 4.352678571428575  C 115.0390625 7.254464285714287  116.66666666666667 10.755952380952372  116.66666666666667 14.857142857142861  C 116.66666666666667 18.95833333333333  115.0390625 22.459821428571423  111.78385416666667 25.36160714285714  C 108.52864583333334 28.26339285714286  104.60069444444444 29.71428571428571  100 29.71428571428571  C 95.39930555555556 29.71428571428571  91.47135416666667 28.26339285714286  88.21614583333333 25.36160714285714  C 84.9609375 22.459821428571423  83.33333333333333 18.95833333333333  83.33333333333333 14.857142857142861  C 83.33333333333333 10.755952380952372  84.9609375 7.254464285714287  88.21614583333333 4.352678571428575  C 91.47135416666667 1.450892857142862  95.39930555555556 0  100 0  C 104.60069444444444 0  108.52864583333334 1.450892857142862  111.78385416666667 4.352678571428575  Z " fill-rule="nonzero" fill="#ff0000" stroke="none" transform="matrix(1 0 0 1 11 23 )" />
  </g>
</svg>