<?xml version="1.0" encoding="utf-8"?>
<svg version="1.1" xmlns:xlink="http://www.w3.org/1999/xlink" width="14px" height="14px" viewBox="19 13.5  14 14" xmlns="http://www.w3.org/2000/svg">
  <path d="M 19.5 15.5  A 1.5 1.5 0 0 1 21 14 L 31 14  A 1.5 1.5 0 0 1 32.5 15.5 L 32.5 25.5  A 1.5 1.5 0 0 1 31 27 L 21 27  A 1.5 1.5 0 0 1 19.5 25.5 L 19.5 15.5  Z " fill-rule="nonzero" fill="#ffffff" stroke="none" fill-opacity="0" />
  <path d="M 19.5 15.5  A 1.5 1.5 0 0 1 21 14 L 31 14  A 1.5 1.5 0 0 1 32.5 15.5 L 32.5 25.5  A 1.5 1.5 0 0 1 31 27 L 21 27  A 1.5 1.5 0 0 1 19.5 25.5 L 19.5 15.5  Z " stroke-width="1" stroke="#333333" fill="none" />
</svg>