<?xml version="1.0" encoding="utf-8"?>
<svg version="1.1" xmlns:xlink="http://www.w3.org/1999/xlink" width="14px" height="14px" viewBox="19 60.5  14 14" xmlns="http://www.w3.org/2000/svg">
  <path d="M 19.5 62.5  A 1.5 1.5 0 0 1 21 61 L 31 61  A 1.5 1.5 0 0 1 32.5 62.5 L 32.5 72.5  A 1.5 1.5 0 0 1 31 74 L 21 74  A 1.5 1.5 0 0 1 19.5 72.5 L 19.5 62.5  Z " fill-rule="nonzero" fill="#ffffff" stroke="none" fill-opacity="0" />
  <path d="M 19.5 62.5  A 1.5 1.5 0 0 1 21 61 L 31 61  A 1.5 1.5 0 0 1 32.5 62.5 L 32.5 72.5  A 1.5 1.5 0 0 1 31 74 L 21 74  A 1.5 1.5 0 0 1 19.5 72.5 L 19.5 62.5  Z " stroke-width="1" stroke="#c2c2c2" fill="none" />
</svg>