<?xml version="1.0" encoding="utf-8"?>
<svg version="1.1" xmlns:xlink="http://www.w3.org/1999/xlink" width="14px" height="14px" viewBox="19 131.5  14 14" xmlns="http://www.w3.org/2000/svg">
  <path d="M 19.5 133.5  A 1.5 1.5 0 0 1 21 132 L 31 132  A 1.5 1.5 0 0 1 32.5 133.5 L 32.5 143.5  A 1.5 1.5 0 0 1 31 145 L 21 145  A 1.5 1.5 0 0 1 19.5 143.5 L 19.5 133.5  Z " fill-rule="nonzero" fill="#ffffff" stroke="none" fill-opacity="0" />
  <path d="M 19.5 133.5  A 1.5 1.5 0 0 1 21 132 L 31 132  A 1.5 1.5 0 0 1 32.5 133.5 L 32.5 143.5  A 1.5 1.5 0 0 1 31 145 L 21 145  A 1.5 1.5 0 0 1 19.5 143.5 L 19.5 133.5  Z " stroke-width="1" stroke="#333333" fill="none" />
</svg>