<?xml version="1.0" encoding="utf-8"?>
<svg version="1.1" xmlns:xlink="http://www.w3.org/1999/xlink" width="14px" height="14px" viewBox="19 84.5  14 14" xmlns="http://www.w3.org/2000/svg">
  <path d="M 19.5 86.5  A 1.5 1.5 0 0 1 21 85 L 31 85  A 1.5 1.5 0 0 1 32.5 86.5 L 32.5 96.5  A 1.5 1.5 0 0 1 31 98 L 21 98  A 1.5 1.5 0 0 1 19.5 96.5 L 19.5 86.5  Z " fill-rule="nonzero" fill="#ffffff" stroke="none" />
  <path d="M 19.5 86.5  A 1.5 1.5 0 0 1 21 85 L 31 85  A 1.5 1.5 0 0 1 32.5 86.5 L 32.5 96.5  A 1.5 1.5 0 0 1 31 98 L 21 98  A 1.5 1.5 0 0 1 19.5 96.5 L 19.5 86.5  Z " stroke-width="1" stroke="#1e98d7" fill="none" />
  <path d="M 22 91.5  L 25 94.5  L 30 87.5  " stroke-width="3" stroke="#1e98d7" fill="none" />
</svg>