<?xml version="1.0" encoding="utf-8"?>
<svg version="1.1" xmlns:xlink="http://www.w3.org/1999/xlink" width="24px" height="33px" xmlns="http://www.w3.org/2000/svg">
  <g>
    <path d="M 4.219971056439942 16.5  C 4.219971056439942 17.200721153846153  4.306801736613604 17.947716346153847  4.480463096960927 18.740985576923077  L 2.7264833574529668 20.743990384615383  C 2.2402315484804634 19.38221153846154  1.9971056439942112 17.967548076923077  1.9971056439942112 16.5  L 1.9971056439942112 13.961538461538463  C 1.9971056439942112 13.617788461538456  2.1070911722141825 13.320312499999998  2.3270622286541247 13.069110576923077  C 2.547033285094067 12.817908653846153  2.807525325615051 12.692307692307692  3.108538350217077 12.692307692307692  C 3.4095513748191033 12.692307692307692  3.6700434153400874 12.817908653846153  3.890014471780029 13.069110576923077  C 4.109985528219971 13.320312499999998  4.219971056439942 13.617788461538456  4.219971056439942 13.961538461538463  L 4.219971056439942 16.5  Z M 24 6.346153846153846  C 24 6.518028846153843  23.942112879884228 6.670072115384613  23.826338639652676 6.802283653846154  L 17.557163531114327 13.961538461538463  L 17.557163531114327 16.5  C 17.557163531114327 18.24519230769231  17.01302460202605 19.73918269230769  15.924746743849493 20.981971153846153  C 14.83646888567294 22.224759615384617  13.528219971056439 22.846153846153847  12 22.846153846153847  C 11.363241678726485 22.846153846153847  10.732272069464544 22.720552884615387  10.107091172214183 22.469350961538463  L 8.439942112879883 24.373197115384617  C 9.562952243125906 25.047475961538463  10.749638205499277 25.384615384615383  12 25.384615384615383  C 14.141823444283649 25.384615384615383  15.973950795947903 24.515324519230766  17.496382054992765 22.776742788461537  C 19.018813314037626 21.038161057692303  19.78002894356006 18.94591346153846  19.78002894356006 16.5  L 19.78002894356006 13.961538461538463  C 19.78002894356006 13.617788461538456  19.890014471780034 13.320312499999998  20.109985528219973 13.069110576923077  C 20.329956584659914 12.817908653846153  20.590448625180898 12.692307692307692  20.891461649782926 12.692307692307692  C 21.192474674384954 12.692307692307692  21.452966714905937 12.817908653846153  21.672937771345875 13.069110576923077  C 21.892908827785817 13.320312499999998  22.00289435600579 13.617788461538456  22.00289435600579 13.961538461538463  L 22.00289435600579 16.5  C 22.00289435600579 19.421875  21.149059334298123 21.963641826923077  19.44138929088278 24.12530048076923  C 17.73371924746744 26.286959134615383  15.623733719247468 27.52644230769231  13.111432706222864 27.84375  L 13.111432706222864 30.461538461538463  L 17.557163531114327 30.461538461538463  C 17.858176555716355 30.461538461538463  18.11866859623734 30.58713942307692  18.33863965267728 30.838341346153847  C 18.558610709117225 31.08954326923077  18.66859623733719 31.387019230769234  18.66859623733719 31.73076923076923  C 18.66859623733719 32.07451923076923  18.558610709117225 32.37199519230769  18.33863965267728 32.62319711538461  C 18.11866859623734 32.87439903846154  17.858176555716355 33  17.557163531114327 33  L 6.442836468885673 33  C 6.141823444283647 33  5.881331403762664 32.87439903846154  5.661360347322721 32.62319711538461  C 5.441389290882779 32.37199519230769  5.3314037626628075 32.07451923076923  5.3314037626628075 31.73076923076923  C 5.3314037626628075 31.387019230769234  5.441389290882779 31.08954326923077  5.661360347322721 30.838341346153847  C 5.881331403762664 30.58713942307692  6.141823444283647 30.461538461538463  6.442836468885673 30.461538461538463  L 10.888567293777136 30.461538461538463  L 10.888567293777136 27.84375  C 9.44138929088278 27.671875  8.081041968162085 27.136418269230766  6.80752532561505 26.23737980769231  L 2.3965267727930537 31.274639423076923  C 2.2807525325615052 31.406850961538463  2.147612156295225 31.47295673076923  1.9971056439942112 31.47295673076923  C 1.8465991316931984 31.47295673076923  1.7134587554269176 31.406850961538463  1.5976845151953691 31.274639423076923  L 0.1736613603473227 29.6484375  C 0.05788712011577428 29.51622596153846  0 29.364182692307693  0 29.19230769230769  C 0 29.02043269230769  0.05788712011577428 28.868389423076923  0.1736613603473227 28.736177884615383  L 21.603473227206948 4.263822115384614  C 21.719247467438496 4.131610576923076  21.85238784370478 4.065504807692308  22.00289435600579 4.065504807692308  C 22.153400868306804 4.065504807692308  22.286541244573087 4.131610576923076  22.40231548480463 4.263822115384614  L 23.826338639652676 5.8900240384615365  C 23.942112879884228 6.022235576923075  24 6.174278846153844  24 6.346153846153846  Z M 15.204052098408104 1.170072115384614  C 16.15918958031838 1.9501201923076898  16.83357452966715 2.954927884615386  17.227206946454416 4.184495192307692  L 6.442836468885673 16.5  L 6.442836468885673 6.346153846153846  C 6.442836468885673 4.6009615384615365  6.986975397973951 3.106971153846152  8.075253256150507 1.8641826923076912  C 9.163531114327064 0.6213942307692341  10.47178002894356 0  12 0  C 13.180897250361793 0  14.248914616497828 0.39002403846154166  15.204052098408104 1.170072115384614  Z " fill-rule="nonzero" fill="#000000" stroke="none" />
  </g>
</svg>