<?xml version="1.0" encoding="utf-8"?>
<svg version="1.1" xmlns:xlink="http://www.w3.org/1999/xlink" width="18px" height="18px" viewBox="785 405  18 18" xmlns="http://www.w3.org/2000/svg">
  <path d="M 786.5 407  A 0.5 0.5 0 0 1 787 406.5 L 801 406.5  A 0.5 0.5 0 0 1 801.5 407 L 801.5 421  A 0.5 0.5 0 0 1 801 421.5 L 787 421.5  A 0.5 0.5 0 0 1 786.5 421 L 786.5 407  Z " fill-rule="nonzero" fill="#ffffff" stroke="none" fill-opacity="0" />
  <path d="M 786 407  A 1 1 0 0 1 787 406 L 801 406  A 1 1 0 0 1 802 407 L 802 421  A 1 1 0 0 1 801 422 L 787 422  A 1 1 0 0 1 786 421 L 786 407  Z " stroke-width="2" stroke="#797979" fill="none" />
</svg>