<?xml version="1.0" encoding="utf-8"?>
<svg version="1.1" xmlns:xlink="http://www.w3.org/1999/xlink" width="18px" height="18px" viewBox="785 366  18 18" xmlns="http://www.w3.org/2000/svg">
  <path d="M 786.5 368  A 0.5 0.5 0 0 1 787 367.5 L 801 367.5  A 0.5 0.5 0 0 1 801.5 368 L 801.5 382  A 0.5 0.5 0 0 1 801 382.5 L 787 382.5  A 0.5 0.5 0 0 1 786.5 382 L 786.5 368  Z " fill-rule="nonzero" fill="#ffffff" stroke="none" fill-opacity="0" />
  <path d="M 786 368  A 1 1 0 0 1 787 367 L 801 367  A 1 1 0 0 1 802 368 L 802 382  A 1 1 0 0 1 801 383 L 787 383  A 1 1 0 0 1 786 382 L 786 368  Z " stroke-width="2" stroke="#797979" fill="none" />
</svg>