<?xml version="1.0" encoding="utf-8"?>
<svg version="1.1" xmlns:xlink="http://www.w3.org/1999/xlink" width="24px" height="33px" xmlns="http://www.w3.org/2000/svg">
  <g>
    <path d="M 23.604166666666664 13.069110576923077  C 23.868055555555557 13.320312499999998  24 13.617788461538456  24 13.961538461538463  L 24 16.5  C 24 19.421875  22.975694444444446 21.963641826923077  20.927083333333336 24.12530048076923  C 18.87847222222222 26.286959134615383  16.34722222222222 27.52644230769231  13.333333333333334 27.84375  L 13.333333333333334 30.461538461538463  L 18.666666666666668 30.461538461538463  C 19.02777777777778 30.461538461538463  19.34027777777778 30.58713942307692  19.604166666666668 30.838341346153847  C 19.868055555555557 31.08954326923077  20.000000000000004 31.387019230769234  20 31.73076923076923  C 20.000000000000004 32.07451923076923  19.868055555555557 32.37199519230769  19.604166666666668 32.62319711538461  C 19.34027777777778 32.87439903846154  19.02777777777778 33  18.666666666666668 33  L 5.333333333333333 33  C 4.972222222222222 33  4.659722222222223 32.87439903846154  4.395833333333333 32.62319711538461  C 4.131944444444444 32.37199519230769  4 32.07451923076923  4 31.73076923076923  C 4 31.387019230769234  4.131944444444444 31.08954326923077  4.395833333333333 30.838341346153847  C 4.659722222222223 30.58713942307692  4.972222222222222 30.461538461538463  5.333333333333333 30.461538461538463  L 10.666666666666666 30.461538461538463  L 10.666666666666666 27.84375  C 7.652777777777779 27.52644230769231  5.121527777777779 26.286959134615383  3.072916666666667 24.12530048076923  C 1.0243055555555556 21.963641826923077  0 19.421875  0 16.5  L 0 13.961538461538463  C 0 13.617788461538456  0.13194444444444445 13.320312499999998  0.39583333333333337 13.069110576923077  C 0.6597222222222222 12.817908653846153  0.9722222222222223 12.692307692307692  1.3333333333333333 12.692307692307692  C 1.6944444444444446 12.692307692307692  2.0069444444444446 12.817908653846153  2.270833333333333 13.069110576923077  C 2.5347222222222223 13.320312499999998  2.6666666666666665 13.617788461538456  2.6666666666666665 13.961538461538463  L 2.6666666666666665 16.5  C 2.6666666666666665 18.94591346153846  3.5798611111111116 21.038161057692303  5.40625 22.776742788461537  C 7.232638888888889 24.515324519230766  9.430555555555555 25.384615384615383  12 25.384615384615383  C 14.569444444444446 25.384615384615383  16.76736111111111 24.515324519230766  18.59375 22.776742788461537  C 20.420138888888893 21.038161057692303  21.333333333333332 18.94591346153846  21.333333333333332 16.5  L 21.333333333333332 13.961538461538463  C 21.333333333333332 13.617788461538456  21.46527777777778 13.320312499999998  21.729166666666664 13.069110576923077  C 21.993055555555557 12.817908653846153  22.305555555555557 12.692307692307692  22.666666666666664 12.692307692307692  C 23.027777777777782 12.692307692307692  23.34027777777778 12.817908653846153  23.604166666666664 13.069110576923077  Z M 16.708333333333336 1.8641826923076912  C 18.01388888888889 3.106971153846152  18.666666666666668 4.6009615384615365  18.666666666666668 6.346153846153846  L 18.666666666666668 16.5  C 18.666666666666668 18.24519230769231  18.01388888888889 19.73918269230769  16.708333333333336 20.981971153846153  C 15.402777777777779 22.224759615384617  13.833333333333332 22.846153846153847  12 22.846153846153847  C 10.166666666666668 22.846153846153847  8.597222222222225 22.224759615384617  7.291666666666666 20.981971153846153  C 5.9861111111111125 19.73918269230769  5.333333333333333 18.24519230769231  5.333333333333333 16.5  L 5.333333333333333 6.346153846153846  C 5.333333333333333 4.6009615384615365  5.9861111111111125 3.106971153846152  7.291666666666666 1.8641826923076912  C 8.597222222222225 0.6213942307692341  10.166666666666668 0  12 0  C 13.833333333333332 0  15.402777777777779 0.6213942307692341  16.708333333333336 1.8641826923076912  Z " fill-rule="nonzero" fill="#000000" stroke="none" />
  </g>
</svg>