<?xml version="1.0" encoding="utf-8"?>
<svg version="1.1" xmlns:xlink="http://www.w3.org/1999/xlink" width="350px" height="166px" xmlns="http://www.w3.org/2000/svg">
  <defs>
    <mask fill="white" id="clip17">
      <path d="M 157.50000000000003 149  L 174.99999999999997 166  L 192.49999999999994 149  L 350 149  L 350 0  L 0 0  L 0 149  L 157.50000000000003 149  Z " fill-rule="evenodd" />
    </mask>
  </defs>
  <g transform="matrix(1 0 0 1 -389 0 )">
    <path d="M 157.50000000000003 149  L 174.99999999999997 166  L 192.49999999999994 149  L 350 149  L 350 0  L 0 0  L 0 149  L 157.50000000000003 149  Z " fill-rule="nonzero" fill="#ffffff" stroke="none" transform="matrix(1 0 0 1 389 0 )" />
    <path d="M 157.50000000000003 149  L 174.99999999999997 166  L 192.49999999999994 149  L 350 149  L 350 0  L 0 0  L 0 149  L 157.50000000000003 149  Z " stroke-width="2" stroke="#797979" fill="none" transform="matrix(1 0 0 1 389 0 )" mask="url(#clip17)" />
  </g>
</svg>