<?xml version="1.0" encoding="utf-8"?>
<svg version="1.1" xmlns:xlink="http://www.w3.org/1999/xlink" width="30px" height="30px" xmlns="http://www.w3.org/2000/svg">
  <g transform="matrix(1 0 0 1 -49 -4 )">
    <path d="M 22.36328125 18.251953125  C 22.42838541666667 18.310546875  22.4609375 18.385416666666664  22.4609375 18.476562500000004  L 22.4609375 20.605468749999996  C 22.4609375 21.256510416666664  22.22330729166667 21.835937499999996  21.748046875 22.343750000000004  C 21.272786458333336 22.8515625  20.660807291666668 23.24544270833333  19.912109375 23.525390625  C 19.163411458333336 23.805338541666668  18.395182291666668 24.016927083333336  17.607421875 24.16015625  C 16.819661458333336 24.303385416666668  16.0546875 24.375  15.312499999999998 24.375  C 12.643229166666668 24.375  10.413411458333336 23.470052083333336  8.623046875 21.660156249999996  C 6.832682291666668 19.850260416666664  5.9375 17.597656250000004  5.9375 14.902343749999998  C 5.9375 12.259114583333334  6.822916666666668 10.052083333333332  8.59375 8.281249999999998  C 10.364583333333336 6.510416666666665  12.571614583333334 5.625  15.214843750000002 5.625  C 15.657552083333334 5.625  16.149088541666668 5.654296875  16.689453125 5.712890625  C 17.229817708333336 5.771484375  17.835286458333336 5.888671875  18.505859375 6.064453125  C 19.17643229166667 6.240234375  19.778645833333336 6.461588541666666  20.3125 6.728515624999999  C 20.84635416666667 6.995442708333331  21.29557291666667 7.363281250000001  21.66015625 7.832031250000001  C 22.024739583333336 8.300781250000002  22.20703125 8.828125000000002  22.20703125 9.414062500000002  L 22.20703125 11.54296875  C 22.20703125 11.751302083333329  22.102864583333332 11.855468749999998  21.89453125 11.855468749999998  L 19.58984375 11.855468749999998  C 19.38151041666667 11.855468749999998  19.277343750000004 11.751302083333329  19.27734375 11.54296875  L 19.27734375 10.175781250000002  C 19.277343750000004 9.615885416666664  18.850911458333332 9.176432291666664  17.998046875 8.857421875000002  C 17.145182291666668 8.53841145833333  16.25 8.37890625  15.312499999999998 8.37890625  C 13.489583333333336 8.37890625  12.001953125 8.974609375000002  10.849609375 10.166015625  C 9.697265625 11.357421874999998  9.12109375 12.903645833333334  9.12109375 14.804687500000002  C 9.12109375 16.77083333333333  9.716796875 18.395182291666668  10.908203125 19.677734375000004  C 12.099609375 20.96028645833333  13.619791666666668 21.601562499999996  15.46875 21.601562499999996  C 16.354166666666668 21.601562499999996  17.252604166666668 21.4453125  18.1640625 21.132812499999996  C 19.075520833333336 20.820312500000004  19.53125 20.390625  19.53125 19.843749999999996  L 19.53125 18.476562500000004  C 19.53125 18.385416666666664  19.560546875 18.310546875  19.619140625 18.251953125  C 19.677734375 18.193359375  19.74609375 18.1640625  19.82421875 18.1640625  L 22.1484375 18.1640625  C 22.2265625 18.1640625  22.298177083333336 18.193359375  22.36328125 18.251953125  Z M 19.853515625 3.496093750000001  C 18.310546875 2.832031249999999  16.692708333333336 2.500000000000001  15 2.500000000000001  C 13.307291666666666 2.500000000000001  11.689453125 2.832031249999999  10.146484375 3.496093750000001  C 8.603515625 4.16015625  7.275390625 5.048828125000001  6.162109375 6.162109375000001  C 5.048828125 7.275390625000001  4.16015625 8.603515624999998  3.49609375 10.146484375000002  C 2.83203125 11.689453125  2.5 13.307291666666664  2.5 15  C 2.5 16.692708333333336  2.83203125 18.310546875  3.49609375 19.853515625000004  C 4.16015625 21.396484374999996  5.048828125 22.724609375  6.162109375 23.837890625  C 7.275390625 24.951171875  8.603515625 25.83984375  10.146484375 26.50390625  C 11.689453125 27.16796875  13.307291666666666 27.5  15 27.5  C 16.692708333333336 27.5  18.310546875 27.16796875  19.853515625 26.50390625  C 21.396484375 25.83984375  22.724609375 24.951171875  23.837890625 23.837890625  C 24.951171875 22.724609375  25.83984375 21.396484374999996  26.50390625 19.853515625000004  C 27.16796875 18.310546875  27.5 16.692708333333336  27.5 15  C 27.5 13.307291666666664  27.16796875 11.689453125  26.50390625 10.146484375000002  C 25.83984375 8.603515624999998  24.951171875 7.275390625000001  23.837890625 6.162109375000001  C 22.724609375 5.048828125000001  21.396484375 4.16015625  19.853515625 3.496093750000001  Z M 27.98828125 7.470703125  C 29.32942708333333 9.76888020833333  30 12.278645833333329  30 15  C 30 17.721354166666668  29.32942708333333 20.231119791666664  27.98828125 22.529296875  C 26.64713541666667 24.827473958333332  24.827473958333332 26.647135416666668  22.529296875 27.98828125  C 20.23111979166667 29.329427083333336  17.721354166666668 30  15 30  C 12.278645833333334 30  9.768880208333334 29.329427083333336  7.470703125 27.98828125  C 5.172526041666667 26.647135416666668  3.352864583333334 24.827473958333332  2.01171875 22.529296875  C 0.6705729166666665 20.231119791666664  0 17.721354166666668  0 15  C 0 12.278645833333329  0.6705729166666665 9.76888020833333  2.01171875 7.470703125  C 3.352864583333334 5.172526041666666  5.172526041666667 3.3528645833333304  7.470703125 2.011718749999999  C 9.768880208333334 0.6705729166666641  12.278645833333334 0  15 0  C 17.721354166666668 0  20.23111979166667 0.6705729166666641  22.529296875 2.011718749999999  C 24.827473958333332 3.3528645833333304  26.64713541666667 5.172526041666666  27.98828125 7.470703125  Z " fill-rule="nonzero" fill="#000000" stroke="none" transform="matrix(1 0 0 1 49 4 )" />
  </g>
</svg>