<?xml version="1.0" encoding="utf-8"?>
<svg version="1.1" xmlns:xlink="http://www.w3.org/1999/xlink" width="20px" height="20px" xmlns="http://www.w3.org/2000/svg">
  <g transform="matrix(1 0 0 1 -52 -5 )">
    <path d="M 14.908854166666668 12.16796875  C 14.952256944444446 12.20703125  14.973958333333332 12.256944444444443  14.973958333333332 12.317708333333336  L 14.973958333333332 13.736979166666664  C 14.973958333333332 14.171006944444443  14.815538194444446 14.557291666666664  14.498697916666668 14.895833333333336  C 14.181857638888891 15.234375  13.773871527777779 15.496961805555554  13.274739583333332 15.68359375  C 12.775607638888891 15.870225694444445  12.26345486111111 16.01128472222222  11.73828125 16.106770833333332  C 11.213107638888891 16.202256944444443  10.703125 16.25  10.208333333333332 16.25  C 8.428819444444445 16.25  6.942274305555557 15.646701388888891  5.748697916666666 14.440104166666664  C 4.555121527777779 13.233506944444443  3.958333333333333 11.731770833333336  3.958333333333333 9.934895833333332  C 3.958333333333333 8.172743055555555  4.548611111111112 6.701388888888888  5.729166666666666 5.520833333333332  C 6.909722222222223 4.340277777777777  8.38107638888889 3.75  10.143229166666668 3.75  C 10.438368055555555 3.75  10.766059027777779 3.76953125  11.126302083333332 3.80859375  C 11.486545138888891 3.84765625  11.890190972222223 3.92578125  12.337239583333332 4.04296875  C 12.784288194444446 4.16015625  13.185763888888891 4.307725694444445  13.541666666666668 4.485677083333332  C 13.897569444444446 4.663628472222221  14.197048611111114 4.908854166666668  14.440104166666668 5.221354166666668  C 14.683159722222223 5.533854166666668  14.8046875 5.885416666666668  14.8046875 6.276041666666668  L 14.8046875 7.6953125  C 14.8046875 7.834201388888886  14.735243055555555 7.903645833333332  14.596354166666668 7.903645833333332  L 13.059895833333332 7.903645833333332  C 12.921006944444446 7.903645833333332  12.851562500000002 7.834201388888886  12.8515625 7.6953125  L 12.8515625 6.783854166666668  C 12.851562500000002 6.410590277777777  12.567274305555555 6.117621527777777  11.998697916666668 5.904947916666668  C 11.430121527777779 5.692274305555554  10.833333333333332 5.5859375  10.208333333333332 5.5859375  C 8.993055555555557 5.5859375  8.001302083333334 5.983072916666668  7.233072916666666 6.77734375  C 6.46484375 7.571614583333332  6.080729166666666 8.602430555555555  6.080729166666666 9.869791666666668  C 6.080729166666666 11.180555555555554  6.477864583333334 12.26345486111111  7.272135416666666 13.118489583333336  C 8.06640625 13.973524305555554  9.07986111111111 14.401041666666664  10.3125 14.401041666666664  C 10.902777777777779 14.401041666666664  11.50173611111111 14.296875  12.109375 14.088541666666664  C 12.717013888888891 13.880208333333336  13.020833333333332 13.59375  13.020833333333332 13.229166666666664  L 13.020833333333332 12.317708333333336  C 13.020833333333332 12.256944444444443  13.040364583333332 12.20703125  13.079427083333332 12.16796875  C 13.118489583333332 12.12890625  13.1640625 12.109375  13.216145833333332 12.109375  L 14.765625 12.109375  C 14.817708333333332 12.109375  14.865451388888891 12.12890625  14.908854166666668 12.16796875  Z M 13.235677083333332 2.3307291666666674  C 12.20703125 1.8880208333333326  11.128472222222223 1.6666666666666674  10 1.6666666666666674  C 8.871527777777779 1.6666666666666674  7.79296875 1.8880208333333326  6.764322916666666 2.3307291666666674  C 5.735677083333334 2.7734375  4.850260416666667 3.3658854166666674  4.108072916666667 4.108072916666668  C 3.365885416666667 4.850260416666668  2.7734375 5.735677083333332  2.3307291666666665 6.764322916666668  C 1.8880208333333335 7.79296875  1.6666666666666665 8.871527777777777  1.6666666666666665 10  C 1.6666666666666665 11.128472222222223  1.8880208333333335 12.20703125  2.3307291666666665 13.235677083333336  C 2.7734375 14.264322916666664  3.365885416666667 15.149739583333332  4.108072916666667 15.891927083333332  C 4.850260416666667 16.634114583333332  5.735677083333334 17.2265625  6.764322916666666 17.669270833333332  C 7.79296875 18.111979166666668  8.871527777777779 18.333333333333332  10 18.333333333333332  C 11.128472222222223 18.333333333333332  12.20703125 18.111979166666668  13.235677083333332 17.669270833333332  C 14.264322916666668 17.2265625  15.149739583333332 16.634114583333332  15.891927083333332 15.891927083333332  C 16.634114583333332 15.149739583333332  17.2265625 14.264322916666664  17.669270833333332 13.235677083333336  C 18.111979166666668 12.20703125  18.333333333333332 11.128472222222223  18.333333333333332 10  C 18.333333333333332 8.871527777777777  18.111979166666668 7.79296875  17.669270833333332 6.764322916666668  C 17.2265625 5.735677083333332  16.634114583333332 4.850260416666668  15.891927083333332 4.108072916666668  C 15.149739583333332 3.3658854166666674  14.264322916666668 2.7734375  13.235677083333332 2.3307291666666674  Z M 18.658854166666668 4.98046875  C 19.552951388888886 6.512586805555554  20 8.185763888888886  20 10  C 20 11.81423611111111  19.552951388888886 13.487413194444443  18.658854166666668 15.01953125  C 17.764756944444446 16.551649305555557  16.551649305555557 17.764756944444443  15.01953125 18.658854166666668  C 13.487413194444446 19.55295138888889  11.81423611111111 20  10 20  C 8.18576388888889 20  6.512586805555555 19.55295138888889  4.98046875 18.658854166666668  C 3.4483506944444446 17.764756944444443  2.235243055555556 16.551649305555557  1.3411458333333335 15.01953125  C 0.44704861111111105 13.487413194444443  0 11.81423611111111  0 10  C 0 8.185763888888886  0.44704861111111105 6.512586805555554  1.3411458333333335 4.98046875  C 2.235243055555556 3.448350694444444  3.4483506944444446 2.2352430555555536  4.98046875 1.3411458333333326  C 6.512586805555555 0.4470486111111094  8.18576388888889 0  10 0  C 11.81423611111111 0  13.487413194444446 0.4470486111111094  15.01953125 1.3411458333333326  C 16.551649305555557 2.2352430555555536  17.764756944444446 3.448350694444444  18.658854166666668 4.98046875  Z " fill-rule="nonzero" fill="#000000" stroke="none" transform="matrix(1 0 0 1 52 5 )" />
  </g>
</svg>