<?xml version="1.0" encoding="utf-8"?>
<svg version="1.1" xmlns:xlink="http://www.w3.org/1999/xlink" width="19px" height="20px" xmlns="http://www.w3.org/2000/svg">
  <g transform="matrix(1 0 0 1 -45 -5 )">
    <path d="M 14.163411458333334 12.16796875  C 14.204644097222225 12.20703125  14.225260416666666 12.256944444444443  14.225260416666666 12.317708333333336  L 14.225260416666666 13.736979166666664  C 14.225260416666666 14.171006944444443  14.074761284722225 14.557291666666664  13.773763020833334 14.895833333333336  C 13.472764756944446 15.234375  13.08517795138889 15.496961805555554  12.611002604166666 15.68359375  C 12.136827256944446 15.870225694444445  11.650282118055555 16.01128472222222  11.1513671875 16.106770833333332  C 10.652452256944446 16.202256944444443  10.16796875 16.25  9.697916666666666 16.25  C 8.007378472222223 16.25  6.5951605902777795 15.646701388888891  5.461263020833333 14.440104166666664  C 4.327365451388889 13.233506944444443  3.7604166666666665 11.731770833333336  3.7604166666666665 9.934895833333332  C 3.7604166666666665 8.172743055555555  4.321180555555556 6.701388888888888  5.442708333333333 5.520833333333332  C 6.5642361111111125 4.340277777777777  7.962022569444445 3.75  9.636067708333334 3.75  C 9.916449652777779 3.75  10.22775607638889 3.76953125  10.569986979166666 3.80859375  C 10.912217881944446 3.84765625  11.295681423611112 3.92578125  11.720377604166666 4.04296875  C 12.145073784722225 4.16015625  12.526475694444446 4.307725694444445  12.864583333333334 4.485677083333332  C 13.202690972222225 4.663628472222221  13.487196180555559 4.908854166666668  13.718098958333334 5.221354166666668  C 13.949001736111112 5.533854166666668  14.064453125 5.885416666666668  14.064453125 6.276041666666668  L 14.064453125 7.6953125  C 14.064453125 7.834201388888886  13.998480902777779 7.903645833333332  13.866536458333334 7.903645833333332  L 12.406901041666666 7.903645833333332  C 12.274956597222225 7.903645833333332  12.208984375000002 7.834201388888886  12.208984375 7.6953125  L 12.208984375 6.783854166666668  C 12.208984375000002 6.410590277777777  11.938910590277779 6.117621527777777  11.398763020833334 5.904947916666668  C 10.85861545138889 5.692274305555554  10.291666666666666 5.5859375  9.697916666666666 5.5859375  C 8.543402777777779 5.5859375  7.601236979166667 5.983072916666668  6.871419270833333 6.77734375  C 6.1416015625 7.571614583333332  5.776692708333333 8.602430555555555  5.776692708333333 9.869791666666668  C 5.776692708333333 11.180555555555554  6.153971354166667 12.26345486111111  6.908528645833333 13.118489583333336  C 7.6630859375 13.973524305555554  8.625868055555555 14.401041666666664  9.796875 14.401041666666664  C 10.35763888888889 14.401041666666664  10.926649305555555 14.296875  11.50390625 14.088541666666664  C 12.081163194444446 13.880208333333336  12.369791666666666 13.59375  12.369791666666666 13.229166666666664  L 12.369791666666666 12.317708333333336  C 12.369791666666666 12.256944444444443  12.388346354166666 12.20703125  12.425455729166666 12.16796875  C 12.462565104166666 12.12890625  12.505859375 12.109375  12.555338541666666 12.109375  L 14.02734375 12.109375  C 14.076822916666666 12.109375  14.122178819444446 12.12890625  14.163411458333334 12.16796875  Z M 12.573893229166666 2.3307291666666674  C 11.5966796875 1.8880208333333326  10.572048611111112 1.6666666666666674  9.5 1.6666666666666674  C 8.42795138888889 1.6666666666666674  7.4033203125 1.8880208333333326  6.426106770833333 2.3307291666666674  C 5.448893229166667 2.7734375  4.607747395833334 3.3658854166666674  3.9026692708333335 4.108072916666668  C 3.1975911458333335 4.850260416666668  2.634765625 5.735677083333332  2.214192708333333 6.764322916666668  C 1.7936197916666667 7.79296875  1.5833333333333333 8.871527777777777  1.5833333333333333 10  C 1.5833333333333333 11.128472222222223  1.7936197916666667 12.20703125  2.214192708333333 13.235677083333336  C 2.634765625 14.264322916666664  3.1975911458333335 15.149739583333332  3.9026692708333335 15.891927083333332  C 4.607747395833334 16.634114583333332  5.448893229166667 17.2265625  6.426106770833333 17.669270833333332  C 7.4033203125 18.111979166666668  8.42795138888889 18.333333333333332  9.5 18.333333333333332  C 10.572048611111112 18.333333333333332  11.5966796875 18.111979166666668  12.573893229166666 17.669270833333332  C 13.551106770833334 17.2265625  14.392252604166666 16.634114583333332  15.097330729166666 15.891927083333332  C 15.802408854166666 15.149739583333332  16.365234375 14.264322916666664  16.785807291666664 13.235677083333336  C 17.206380208333336 12.20703125  17.416666666666664 11.128472222222223  17.416666666666664 10  C 17.416666666666664 8.871527777777777  17.206380208333336 7.79296875  16.785807291666664 6.764322916666668  C 16.365234375 5.735677083333332  15.802408854166666 4.850260416666668  15.097330729166666 4.108072916666668  C 14.392252604166666 3.3658854166666674  13.551106770833334 2.7734375  12.573893229166666 2.3307291666666674  Z M 17.725911458333336 4.98046875  C 18.575303819444443 6.512586805555554  19 8.185763888888886  19 10  C 19 11.81423611111111  18.575303819444443 13.487413194444443  17.725911458333336 15.01953125  C 16.876519097222225 16.551649305555557  15.724066840277779 17.764756944444443  14.2685546875 18.658854166666668  C 12.813042534722225 19.55295138888889  11.223524305555555 20  9.5 20  C 7.776475694444445 20  6.186957465277778 19.55295138888889  4.7314453125 18.658854166666668  C 3.2759331597222223 17.764756944444443  2.123480902777778 16.551649305555557  1.2740885416666667 15.01953125  C 0.42469618055555547 13.487413194444443  0 11.81423611111111  0 10  C 0 8.185763888888886  0.42469618055555547 6.512586805555554  1.2740885416666667 4.98046875  C 2.123480902777778 3.448350694444444  3.2759331597222223 2.2352430555555536  4.7314453125 1.3411458333333326  C 6.186957465277778 0.4470486111111094  7.776475694444445 0  9.5 0  C 11.223524305555555 0  12.813042534722225 0.4470486111111094  14.2685546875 1.3411458333333326  C 15.724066840277779 2.2352430555555536  16.876519097222225 3.448350694444444  17.725911458333336 4.98046875  Z " fill-rule="nonzero" fill="#000000" stroke="none" transform="matrix(1 0 0 1 45 5 )" />
  </g>
</svg>