<?xml version="1.0" encoding="utf-8"?>
<svg version="1.1" xmlns:xlink="http://www.w3.org/1999/xlink" width="18px" height="21px" xmlns="http://www.w3.org/2000/svg">
  <g transform="matrix(1 0 0 1 -178 -279 )">
    <path d="M 10.104910714285715 9.468749999999998  C 10.345982142857142 9.1796875  10.466517857142858 8.76953125  10.466517857142858 8.238281249999998  C 10.466517857142858 7.550781249999999  10.265625 7.078124999999999  9.863839285714285 6.8203125  C 9.642857142857142 6.679687499999999  9.251116071428573 6.609375000000001  8.688616071428571 6.609375000000001  L 7.453125 6.609375000000001  L 7.453125 9.90234375  L 9.080357142857142 9.90234375  C 9.522321428571427 9.90234375  9.863839285714285 9.757812499999998  10.104910714285715 9.468749999999998  Z M 10.8984375 11.390625  C 10.938616071428573 11.468749999999998  10.96875 11.531249999999998  10.988839285714285 11.578125  L 13.047991071428573 15.949218750000002  C 13.1015625 16.08203125  13.098214285714285 16.203125  13.037946428571427 16.3125  C 12.984375000000002 16.437500000000004  12.893973214285714 16.5  12.766741071428573 16.5  L 11.239955357142858 16.5  C 11.106026785714286 16.5  11.012276785714288 16.43359375  10.958705357142858 16.30078125  L 9.010044642857142 12.023437499999998  L 7.453125 12.023437499999998  L 7.453125 16.125  C 7.453125 16.234375  7.422991071428571 16.32421875  7.3627232142857135 16.39453125  C 7.302455357142858 16.46484375  7.22544642857143 16.5  7.131696428571429 16.5  L 5.7857142857142865 16.5  C 5.6919642857142865 16.5  5.614955357142858 16.46484375  5.5546875 16.39453125  C 5.494419642857142 16.32421875  5.4642857142857135 16.234375  5.4642857142857135 16.125  L 5.4642857142857135 4.874999999999999  C 5.4642857142857135 4.765624999999998  5.494419642857142 4.67578125  5.5546875 4.60546875  C 5.614955357142858 4.535156249999999  5.6919642857142865 4.5  5.7857142857142865 4.5  L 8.738839285714286 4.5  C 9.595982142857142 4.5  10.23214285714286 4.59375  10.647321428571427 4.781249999999999  C 11.21651785714286 5.023437499999998  11.665178571428573 5.449218749999999  11.993303571428573 6.05859375  C 12.321428571428571 6.667968749999999  12.485491071428573 7.37109375  12.485491071428573 8.167968750000002  C 12.485491071428573 8.886718749999998  12.343191964285715 9.533203125  12.05859375 10.107421875  C 11.773995535714286 10.681640625  11.387276785714286 11.109375000000002  10.8984375 11.390625  Z M 11.872767857142858 2.560546875000001  C 10.962053571428573 2.1035156249999996  10.004464285714285 1.8750000000000004  9 1.8750000000000004  C 7.9955357142857135 1.8750000000000004  7.037946428571429 2.1035156249999996  6.127232142857142 2.560546875000001  C 5.216517857142857 3.017578124999999  4.431361607142858 3.630859375  3.7717633928571432 4.400390625  C 3.112165178571429 5.169921874999997  2.5864955357142856 6.085937499999999  2.1947544642857144 7.1484375  C 1.8030133928571428 8.210937499999998  1.6071428571428572 9.328125  1.6071428571428572 10.5  C 1.6071428571428572 11.671875  1.8030133928571428 12.7890625  2.1947544642857144 13.8515625  C 2.5864955357142856 14.914062499999998  3.112165178571429 15.830078125  3.7717633928571432 16.599609375  C 4.431361607142858 17.369140625  5.216517857142857 17.982421875  6.127232142857142 18.439453125  C 7.037946428571429 18.896484375  7.9955357142857135 19.125  9 19.125  C 10.004464285714285 19.125  10.962053571428573 18.896484375  11.872767857142858 18.439453125  C 12.783482142857144 17.982421875  13.568638392857146 17.369140625  14.228236607142858 16.599609375  C 14.887834821428571 15.830078125  15.413504464285715 14.914062499999998  15.805245535714285 13.8515625  C 16.19698660714286 12.7890625  16.392857142857146 11.671875  16.392857142857142 10.5  C 16.392857142857146 9.328125  16.19698660714286 8.210937499999998  15.805245535714285 7.1484375  C 15.413504464285715 6.085937499999999  14.887834821428571 5.169921874999997  14.228236607142858 4.400390625  C 13.568638392857146 3.630859375  12.783482142857144 3.017578124999999  11.872767857142858 2.560546875000001  Z M 17.286830357142858 6.421874999999999  C 17.76227678571429 7.718749999999998  18 9.078125  18 10.5  C 18 11.921874999999998  17.76227678571429 13.28125  17.286830357142858 14.578125  C 16.81138392857143 15.875  16.171875000000004 16.9921875  15.368303571428573 17.9296875  C 14.564732142857142 18.8671875  13.60714285714286 19.61328125  12.495535714285715 20.16796875  C 11.383928571428573 20.72265625  10.21875 21  9 21  C 7.78125 21  6.616071428571429 20.72265625  5.5044642857142865 20.16796875  C 4.392857142857143 19.61328125  3.4352678571428568 18.8671875  2.631696428571429 17.9296875  C 1.828125 16.9921875  1.1886160714285714 15.875  0.7131696428571428 14.578125  C 0.23772321428571425 13.28125  0 11.921874999999998  0 10.5  C 0 9.078125  0.23772321428571425 7.718749999999998  0.7131696428571428 6.421874999999999  C 1.1886160714285714 5.124999999999998  1.828125 4.0078125  2.631696428571429 3.070312499999999  C 3.4352678571428568 2.1328125  4.392857142857143 1.3867187499999996  5.5044642857142865 0.8320312499999997  C 6.616071428571429 0.2773437499999999  7.78125 0  9 0  C 10.21875 0  11.383928571428573 0.2773437499999999  12.495535714285715 0.8320312499999997  C 13.60714285714286 1.3867187499999996  14.564732142857142 2.1328125  15.368303571428573 3.070312499999999  C 16.171875000000004 4.0078125  16.81138392857143 5.124999999999998  17.286830357142858 6.421874999999999  Z " fill-rule="nonzero" fill="#0000ff" stroke="none" transform="matrix(1 0 0 1 178 279 )" />
  </g>
</svg>