<?xml version="1.0" encoding="utf-8"?>
<svg version="1.1" xmlns:xlink="http://www.w3.org/1999/xlink" width="25px" height="25px" xmlns="http://www.w3.org/2000/svg">
  <g transform="matrix(1 0 0 1 -217 -503 )">
    <path d="M 14.034598214285715 11.272321428571427  C 14.369419642857142 10.928199404761903  14.536830357142858 10.439918154761903  14.536830357142858 9.807477678571427  C 14.536830357142858 8.989025297619047  14.2578125 8.426339285714285  13.699776785714285 8.119419642857142  C 13.392857142857142 7.952008928571427  12.848772321428573 7.868303571428573  12.067522321428571 7.868303571428573  L 10.3515625 7.868303571428573  L 10.3515625 11.788504464285715  L 12.611607142857142 11.788504464285715  C 13.225446428571427 11.788504464285715  13.699776785714285 11.61644345238095  14.034598214285715 11.272321428571427  Z M 15.13671875 13.560267857142858  C 15.192522321428573 13.653273809523808  15.234375 13.72767857142857  15.262276785714285 13.783482142857142  L 18.122209821428573 18.98716517857143  C 18.196614583333336 19.145275297619047  18.191964285714285 19.289434523809522  18.108258928571427 19.419642857142858  C 18.033854166666668 19.568452380952383  17.90829613095238 19.642857142857142  17.731584821428573 19.642857142857142  L 15.611049107142858 19.642857142857142  C 15.425037202380953 19.642857142857142  15.294828869047622 19.563802083333332  15.220424107142858 19.405691964285715  L 12.513950892857142 14.31361607142857  L 10.3515625 14.31361607142857  L 10.3515625 19.19642857142857  C 10.3515625 19.326636904761905  10.309709821428571 19.43359375  10.226004464285714 19.517299107142858  C 10.142299107142858 19.601004464285715  10.035342261904763 19.642857142857142  9.905133928571429 19.642857142857142  L 8.035714285714286 19.642857142857142  C 7.905505952380953 19.642857142857142  7.798549107142858 19.601004464285715  7.71484375 19.517299107142858  C 7.631138392857142 19.43359375  7.5892857142857135 19.326636904761905  8 19.19642857142857  L 8 5.803571428571427  C 7.5892857142857135 5.673363095238093  7.631138392857142 5.56640625  7.71484375 5.482700892857142  C 7.798549107142858 5.398995535714285  7.905505952380953 5.357142857142858  8.035714285714286 5.357142857142858  L 12.137276785714286 5.357142857142858  C 13.327752976190476 5.357142857142858  14.211309523809526 5.46875  14.787946428571427 5.691964285714285  C 15.578497023809526 5.9802827380952355  16.201636904761905 6.487165178571427  16.657366071428573 7.212611607142858  C 17.113095238095237 7.938058035714285  17.340959821428573 8.775111607142858  17.340959821428573 9.723772321428573  C 17.340959821428573 10.579427083333332  17.14332217261905 11.349051339285715  16.748046875 12.032645089285715  C 16.352771577380953 12.716238839285715  15.815662202380953 13.22544642857143  15.13671875 13.560267857142858  Z M 16.489955357142858 3.0482700892857153  C 15.225074404761907 2.5041852678571423  13.895089285714285 2.2321428571428577  12.5 2.2321428571428577  C 11.104910714285714 2.2321428571428577  9.774925595238097 2.5041852678571423  8.510044642857142 3.0482700892857153  C 7.245163690476191 3.5923549107142847  6.154668898809525 4.322451636904762  5.238560267857143 5.238560267857142  C 4.322451636904763 6.15466889880952  3.5923549107142856 7.245163690476189  3.0482700892857144 8.510044642857142  C 2.504185267857143 9.774925595238093  2.232142857142857 11.104910714285715  2.232142857142857 12.5  C 2.232142857142857 13.895089285714285  2.504185267857143 15.225074404761903  3.0482700892857144 16.489955357142858  C 3.5923549107142856 17.754836309523807  4.322451636904763 18.845331101190478  5.238560267857143 19.761439732142858  C 6.154668898809525 20.677548363095237  7.245163690476191 21.407645089285715  8.510044642857142 21.951729910714285  C 9.774925595238097 22.495814732142858  11.104910714285714 22.767857142857142  12.5 22.767857142857142  C 13.895089285714285 22.767857142857142  15.225074404761907 22.495814732142858  16.489955357142858 21.951729910714285  C 17.75483630952381 21.407645089285715  18.845331101190478 20.677548363095237  19.761439732142858 19.761439732142858  C 20.677548363095237 18.845331101190478  21.407645089285715 17.754836309523807  21.951729910714285 16.489955357142858  C 22.49581473214286 15.225074404761903  22.767857142857146 13.895089285714285  22.767857142857142 12.5  C 22.767857142857146 11.104910714285715  22.49581473214286 9.774925595238093  21.951729910714285 8.510044642857142  C 21.407645089285715 7.245163690476189  20.677548363095237 6.15466889880952  19.761439732142858 5.238560267857142  C 18.845331101190478 4.322451636904762  17.75483630952381 3.5923549107142847  16.489955357142858 3.0482700892857153  Z M 24.009486607142858 7.645089285714285  C 24.66982886904762 9.188988095238093  25 10.807291666666666  25 12.5  C 25 14.192708333333332  24.66982886904762 15.811011904761903  24.009486607142858 17.354910714285715  C 23.3491443452381 18.898809523809522  22.460937500000004 20.228794642857142  21.344866071428573 21.34486607142857  C 20.228794642857142 22.4609375  18.898809523809526 23.349144345238095  17.354910714285715 24.009486607142858  C 15.811011904761907 24.66982886904762  14.192708333333334 25  12.5 25  C 10.807291666666668 25  9.188988095238097 24.66982886904762  7.6450892857142865 24.009486607142858  C 6.101190476190476 23.349144345238095  4.771205357142857 22.4609375  3.655133928571429 21.34486607142857  C 2.5390625 20.228794642857142  1.6508556547619049 18.898809523809522  0.9905133928571428 17.354910714285715  C 0.33017113095238093 15.811011904761903  0 14.192708333333332  0 12.5  C 0 10.807291666666666  0.33017113095238093 9.188988095238093  0.9905133928571428 7.645089285714285  C 1.6508556547619049 6.101190476190474  2.5390625 4.771205357142858  3.655133928571429 3.6551339285714275  C 4.771205357142857 2.5390625  6.101190476190476 1.6508556547619042  7.6450892857142865 0.9905133928571425  C 9.188988095238097 0.3301711309523808  10.807291666666668 0  12.5 0  C 14.192708333333334 0  15.811011904761907 0.3301711309523808  17.354910714285715 0.9905133928571425  C 18.898809523809526 1.6508556547619042  20.228794642857142 2.5390625  21.344866071428573 3.6551339285714275  C 22.460937500000004 4.771205357142858  23.3491443452381 6.101190476190474  24.009486607142858 7.645089285714285  Z " fill-rule="nonzero" fill="#0000ff" stroke="none" transform="matrix(1 0 0 1 217 503 )" />
  </g>
</svg>