<?xml version="1.0" encoding="utf-8"?>
<svg version="1.1" xmlns:xlink="http://www.w3.org/1999/xlink" width="300px" height="300px" xmlns="http://www.w3.org/2000/svg">
  <defs>
    <mask fill="white" id="clip7">
      <path d="M 0 290.9365558912387  L 0 9.06344410876133  C 0 3.9879154078549854  3.2835820895522385 0  7.462686567164179 0  L 40.091710124078475 0  L 292.53731343283584 0  C 296.7164179104478 0  300 3.9879154078549854  300 9.06344410876133  L 300 290.9365558912387  C 300 296.01208459214496  296.7164179104478 300  292.53731343283584 300  L 7.462686567164179 300  C 3.2835820895522385 300  0 296.01208459214496  0 290.9365558912387  Z " fill-rule="evenodd" />
    </mask>
  </defs>
  <g>
    <path d="M 0 290.9365558912387  L 0 9.06344410876133  C 0 3.9879154078549854  3.2835820895522385 0  7.462686567164179 0  L 40.091710124078475 0  L 292.53731343283584 0  C 296.7164179104478 0  300 3.9879154078549854  300 9.06344410876133  L 300 290.9365558912387  C 300 296.01208459214496  296.7164179104478 300  292.53731343283584 300  L 7.462686567164179 300  C 3.2835820895522385 300  0 296.01208459214496  0 290.9365558912387  Z " fill-rule="nonzero" fill="#ffffff" stroke="none" />
    <path d="M 0 290.9365558912387  L 0 9.06344410876133  C 0 3.9879154078549854  3.2835820895522385 0  7.462686567164179 0  L 40.091710124078475 0  L 292.53731343283584 0  C 296.7164179104478 0  300 3.9879154078549854  300 9.06344410876133  L 300 290.9365558912387  C 300 296.01208459214496  296.7164179104478 300  292.53731343283584 300  L 7.462686567164179 300  C 3.2835820895522385 300  0 296.01208459214496  0 290.9365558912387  Z " stroke-width="2" stroke="#797979" fill="none" mask="url(#clip7)" />
  </g>
</svg>