<?xml version="1.0" encoding="utf-8"?>
<svg version="1.1" xmlns:xlink="http://www.w3.org/1999/xlink" width="340px" height="358px" xmlns="http://www.w3.org/2000/svg">
  <defs>
    <mask fill="white" id="clip12">
      <path d="M 0 346.06666666666666  L 0 11.933333333333334  C 0 5.250666666666666  4.986666666666666 0  11.333333333333334 0  C 11.333333333333334 0  23.53846153846154 0  29.64102564102564 0  C 129.31623931623932 0  328.6666666666667 0  328.6666666666667 0  C 335.01333333333326 0  340 5.250666666666666  340 11.933333333333334  L 340 346.06666666666666  C 340 352.74933333333325  335.01333333333326 358  328.6666666666667 358  L 11.333333333333334 358  C 4.986666666666666 358  0 352.74933333333325  0 346.06666666666666  Z " fill-rule="evenodd" />
    </mask>
  </defs>
  <g transform="matrix(1 0 0 1 -10 -171 )">
    <path d="M 0 346.06666666666666  L 0 11.933333333333334  C 0 5.250666666666666  4.986666666666666 0  11.333333333333334 0  C 11.333333333333334 0  23.53846153846154 0  29.64102564102564 0  C 129.31623931623932 0  328.6666666666667 0  328.6666666666667 0  C 335.01333333333326 0  340 5.250666666666666  340 11.933333333333334  L 340 346.06666666666666  C 340 352.74933333333325  335.01333333333326 358  328.6666666666667 358  L 11.333333333333334 358  C 4.986666666666666 358  0 352.74933333333325  0 346.06666666666666  Z " fill-rule="nonzero" fill="#ffffff" stroke="none" transform="matrix(1 0 0 1 10 171 )" />
    <path d="M 0 346.06666666666666  L 0 11.933333333333334  C 0 5.250666666666666  4.986666666666666 0  11.333333333333334 0  C 11.333333333333334 0  23.53846153846154 0  29.64102564102564 0  C 129.31623931623932 0  328.6666666666667 0  328.6666666666667 0  C 335.01333333333326 0  340 5.250666666666666  340 11.933333333333334  L 340 346.06666666666666  C 340 352.74933333333325  335.01333333333326 358  328.6666666666667 358  L 11.333333333333334 358  C 4.986666666666666 358  0 352.74933333333325  0 346.06666666666666  Z " stroke-width="2" stroke="#797979" fill="none" transform="matrix(1 0 0 1 10 171 )" mask="url(#clip12)" />
  </g>
</svg>