<?xml version="1.0" encoding="utf-8"?>
<svg version="1.1" xmlns:xlink="http://www.w3.org/1999/xlink" width="329px" height="358px" xmlns="http://www.w3.org/2000/svg">
  <defs>
    <mask fill="white" id="clip14">
      <path d="M 0 346.06666666666666  L 0 11.933333333333334  C 0 5.250666666666666  4.825333333333333 0  10.966666666666667 0  C 10.966666666666667 0  22.77692307692308 0  28.68205128205128 0  C 125.13247863247865 0  318.03333333333336 0  318.03333333333336 0  C 324.1746666666666 0  329 5.250666666666666  329 11.933333333333334  L 329 346.06666666666666  C 329 352.74933333333325  324.1746666666666 358  318.03333333333336 358  L 10.966666666666667 358  C 4.825333333333333 358  0 352.74933333333325  0 346.06666666666666  Z " fill-rule="evenodd" />
    </mask>
  </defs>
  <g transform="matrix(1 0 0 1 -23 0 )">
    <path d="M 0 346.06666666666666  L 0 11.933333333333334  C 0 5.250666666666666  4.825333333333333 0  10.966666666666667 0  C 10.966666666666667 0  22.77692307692308 0  28.68205128205128 0  C 125.13247863247865 0  318.03333333333336 0  318.03333333333336 0  C 324.1746666666666 0  329 5.250666666666666  329 11.933333333333334  L 329 346.06666666666666  C 329 352.74933333333325  324.1746666666666 358  318.03333333333336 358  L 10.966666666666667 358  C 4.825333333333333 358  0 352.74933333333325  0 346.06666666666666  Z " fill-rule="nonzero" fill="#ffffff" stroke="none" transform="matrix(1 0 0 1 23 0 )" />
    <path d="M 0 346.06666666666666  L 0 11.933333333333334  C 0 5.250666666666666  4.825333333333333 0  10.966666666666667 0  C 10.966666666666667 0  22.77692307692308 0  28.68205128205128 0  C 125.13247863247865 0  318.03333333333336 0  318.03333333333336 0  C 324.1746666666666 0  329 5.250666666666666  329 11.933333333333334  L 329 346.06666666666666  C 329 352.74933333333325  324.1746666666666 358  318.03333333333336 358  L 10.966666666666667 358  C 4.825333333333333 358  0 352.74933333333325  0 346.06666666666666  Z " stroke-width="2" stroke="#797979" fill="none" transform="matrix(1 0 0 1 23 0 )" mask="url(#clip14)" />
  </g>
</svg>