<?xml version="1.0" encoding="utf-8"?>
<svg version="1.1" xmlns:xlink="http://www.w3.org/1999/xlink" width="328px" height="360px" xmlns="http://www.w3.org/2000/svg">
  <defs>
    <mask fill="white" id="clip15">
      <path d="M 0 348  L 0 12  C 0 5.279999999999999  4.810666666666666 0  10.933333333333334 0  C 10.933333333333334 0  22.70769230769231 0  28.594871794871793 0  C 124.75213675213676 0  317.06666666666666 0  317.06666666666666 0  C 323.18933333333325 0  328 5.279999999999999  328 12  L 328 348  C 328 354.7199999999999  323.18933333333325 360  317.06666666666666 360  L 10.933333333333334 360  C 4.810666666666666 360  0 354.7199999999999  0 348  Z " fill-rule="evenodd" />
    </mask>
  </defs>
  <g transform="matrix(1 0 0 1 -15 -1 )">
    <path d="M 0 348  L 0 12  C 0 5.279999999999999  4.810666666666666 0  10.933333333333334 0  C 10.933333333333334 0  22.70769230769231 0  28.594871794871793 0  C 124.75213675213676 0  317.06666666666666 0  317.06666666666666 0  C 323.18933333333325 0  328 5.279999999999999  328 12  L 328 348  C 328 354.7199999999999  323.18933333333325 360  317.06666666666666 360  L 10.933333333333334 360  C 4.810666666666666 360  0 354.7199999999999  0 348  Z " fill-rule="nonzero" fill="#ffffff" stroke="none" transform="matrix(1 0 0 1 15 1 )" />
    <path d="M 0 348  L 0 12  C 0 5.279999999999999  4.810666666666666 0  10.933333333333334 0  C 10.933333333333334 0  22.70769230769231 0  28.594871794871793 0  C 124.75213675213676 0  317.06666666666666 0  317.06666666666666 0  C 323.18933333333325 0  328 5.279999999999999  328 12  L 328 348  C 328 354.7199999999999  323.18933333333325 360  317.06666666666666 360  L 10.933333333333334 360  C 4.810666666666666 360  0 354.7199999999999  0 348  Z " stroke-width="2" stroke="#797979" fill="none" transform="matrix(1 0 0 1 15 1 )" mask="url(#clip15)" />
  </g>
</svg>