<?xml version="1.0" encoding="utf-8"?>
<svg version="1.1" xmlns:xlink="http://www.w3.org/1999/xlink" width="328px" height="360px" xmlns="http://www.w3.org/2000/svg">
  <defs>
    <mask fill="white" id="clip16">
      <path d="M 0 349.12386706948644  L 0 10.876132930513595  C 0 4.785498489425983  3.590049751243781 0  8.159203980099504 0  L 43.83360306899247 0  L 319.8407960199005 0  C 324.4099502487562 0  328 4.785498489425983  328 10.876132930513595  L 328 349.12386706948644  C 328 355.214501510574  324.4099502487562 360  319.8407960199005 360  L 8.159203980099504 360  C 3.590049751243781 360  0 355.214501510574  0 349.12386706948644  Z " fill-rule="evenodd" />
    </mask>
  </defs>
  <g transform="matrix(1 0 0 1 -16 0 )">
    <path d="M 0 349.12386706948644  L 0 10.876132930513595  C 0 4.785498489425983  3.590049751243781 0  8.159203980099504 0  L 43.83360306899247 0  L 319.8407960199005 0  C 324.4099502487562 0  328 4.785498489425983  328 10.876132930513595  L 328 349.12386706948644  C 328 355.214501510574  324.4099502487562 360  319.8407960199005 360  L 8.159203980099504 360  C 3.590049751243781 360  0 355.214501510574  0 349.12386706948644  Z " fill-rule="nonzero" fill="#ffffff" stroke="none" transform="matrix(1 0 0 1 16 0 )" />
    <path d="M 0 349.12386706948644  L 0 10.876132930513595  C 0 4.785498489425983  3.590049751243781 0  8.159203980099504 0  L 43.83360306899247 0  L 319.8407960199005 0  C 324.4099502487562 0  328 4.785498489425983  328 10.876132930513595  L 328 349.12386706948644  C 328 355.214501510574  324.4099502487562 360  319.8407960199005 360  L 8.159203980099504 360  C 3.590049751243781 360  0 355.214501510574  0 349.12386706948644  Z " stroke-width="2" stroke="#797979" fill="none" transform="matrix(1 0 0 1 16 0 )" mask="url(#clip16)" />
  </g>
</svg>