<?xml version="1.0" encoding="utf-8"?>
<svg version="1.1" xmlns:xlink="http://www.w3.org/1999/xlink" width="300px" height="300px" xmlns="http://www.w3.org/2000/svg">
  <defs>
    <mask fill="white" id="clip5">
      <path d="M 0 290  L 0 10  C 0 4.3999999999999995  4.3999999999999995 0  10 0  C 10 0  20.76923076923077 0  26.153846153846153 0  C 114.10256410256412 0  290 0  290 0  C 295.59999999999997 0  300 4.3999999999999995  300 10  L 300 290  C 300 295.59999999999997  295.59999999999997 300  290 300  L 10 300  C 4.3999999999999995 300  0 295.59999999999997  0 290  Z " fill-rule="evenodd" />
    </mask>
  </defs>
  <g>
    <path d="M 0 290  L 0 10  C 0 4.3999999999999995  4.3999999999999995 0  10 0  C 10 0  20.76923076923077 0  26.153846153846153 0  C 114.10256410256412 0  290 0  290 0  C 295.59999999999997 0  300 4.3999999999999995  300 10  L 300 290  C 300 295.59999999999997  295.59999999999997 300  290 300  L 10 300  C 4.3999999999999995 300  0 295.59999999999997  0 290  Z " fill-rule="nonzero" fill="#ffffff" stroke="none" />
    <path d="M 0 290  L 0 10  C 0 4.3999999999999995  4.3999999999999995 0  10 0  C 10 0  20.76923076923077 0  26.153846153846153 0  C 114.10256410256412 0  290 0  290 0  C 295.59999999999997 0  300 4.3999999999999995  300 10  L 300 290  C 300 295.59999999999997  295.59999999999997 300  290 300  L 10 300  C 4.3999999999999995 300  0 295.59999999999997  0 290  Z " stroke-width="2" stroke="#797979" fill="none" mask="url(#clip5)" />
  </g>
</svg>