<?xml version="1.0" encoding="utf-8"?>
<svg version="1.1" xmlns:xlink="http://www.w3.org/1999/xlink" width="407px" height="358px" xmlns="http://www.w3.org/2000/svg">
  <defs>
    <mask fill="white" id="clip3">
      <path d="M 0 347.1842900302115  L 0 10.81570996978852  C 0 4.75891238670695  4.4547263681592035 0  10.124378109452737 0  L 54.3910867349998 0  L 396.8756218905473 0  C 402.54527363184076 0  407 4.75891238670695  407 10.81570996978852  L 407 347.1842900302115  C 407 353.241087613293  402.54527363184076 358  396.8756218905473 358  L 10.124378109452737 358  C 4.4547263681592035 358  0 353.241087613293  0 347.1842900302115  Z " fill-rule="evenodd" />
    </mask>
  </defs>
  <g transform="matrix(1 0 0 1 0 -171 )">
    <path d="M 0 347.1842900302115  L 0 10.81570996978852  C 0 4.75891238670695  4.4547263681592035 0  10.124378109452737 0  L 54.3910867349998 0  L 396.8756218905473 0  C 402.54527363184076 0  407 4.75891238670695  407 10.81570996978852  L 407 347.1842900302115  C 407 353.241087613293  402.54527363184076 358  396.8756218905473 358  L 10.124378109452737 358  C 4.4547263681592035 358  0 353.241087613293  0 347.1842900302115  Z " fill-rule="nonzero" fill="#ffffff" stroke="none" transform="matrix(1 0 0 1 0 171 )" />
    <path d="M 0 347.1842900302115  L 0 10.81570996978852  C 0 4.75891238670695  4.4547263681592035 0  10.124378109452737 0  L 54.3910867349998 0  L 396.8756218905473 0  C 402.54527363184076 0  407 4.75891238670695  407 10.81570996978852  L 407 347.1842900302115  C 407 353.241087613293  402.54527363184076 358  396.8756218905473 358  L 10.124378109452737 358  C 4.4547263681592035 358  0 353.241087613293  0 347.1842900302115  Z " stroke-width="2" stroke="#797979" fill="none" transform="matrix(1 0 0 1 0 171 )" mask="url(#clip3)" />
  </g>
</svg>