<?xml version="1.0" encoding="utf-8"?>
<svg version="1.1" xmlns:xlink="http://www.w3.org/1999/xlink" width="328px" height="358px" xmlns="http://www.w3.org/2000/svg">
  <defs>
    <mask fill="white" id="clip11">
      <path d="M 0 347.1842900302115  L 0 10.81570996978852  C 0 4.75891238670695  3.590049751243781 0  8.159203980099504 0  L 43.83360306899247 0  L 319.8407960199005 0  C 324.4099502487562 0  328 4.75891238670695  328 10.81570996978852  L 328 347.1842900302115  C 328 353.241087613293  324.4099502487562 358  319.8407960199005 358  L 8.159203980099504 358  C 3.590049751243781 358  0 353.241087613293  0 347.1842900302115  Z " fill-rule="evenodd" />
    </mask>
  </defs>
  <g transform="matrix(1 0 0 1 -23 -172 )">
    <path d="M 0 347.1842900302115  L 0 10.81570996978852  C 0 4.75891238670695  3.590049751243781 0  8.159203980099504 0  L 43.83360306899247 0  L 319.8407960199005 0  C 324.4099502487562 0  328 4.75891238670695  328 10.81570996978852  L 328 347.1842900302115  C 328 353.241087613293  324.4099502487562 358  319.8407960199005 358  L 8.159203980099504 358  C 3.590049751243781 358  0 353.241087613293  0 347.1842900302115  Z " fill-rule="nonzero" fill="#ffffff" stroke="none" transform="matrix(1 0 0 1 23 172 )" />
    <path d="M 0 347.1842900302115  L 0 10.81570996978852  C 0 4.75891238670695  3.590049751243781 0  8.159203980099504 0  L 43.83360306899247 0  L 319.8407960199005 0  C 324.4099502487562 0  328 4.75891238670695  328 10.81570996978852  L 328 347.1842900302115  C 328 353.241087613293  324.4099502487562 358  319.8407960199005 358  L 8.159203980099504 358  C 3.590049751243781 358  0 353.241087613293  0 347.1842900302115  Z " stroke-width="2" stroke="#797979" fill="none" transform="matrix(1 0 0 1 23 172 )" mask="url(#clip11)" />
  </g>
</svg>