<?xml version="1.0" encoding="utf-8"?>
<svg version="1.1" xmlns:xlink="http://www.w3.org/1999/xlink" width="25px" height="25px" xmlns="http://www.w3.org/2000/svg">
  <defs>
    <mask fill="white" id="clip2">
      <path d="M 7.500000000000011 0  L 0 12.5  L 7.500000000000011 25  L 7.500000000000011 18  L 25 18  L 25 7  L 7.500000000000011 7  L 7.500000000000011 0  Z " fill-rule="evenodd" />
    </mask>
  </defs>
  <g transform="matrix(1 0 0 1 -369 -497 )">
    <path d="M 7.500000000000011 0  L 0 12.5  L 7.500000000000011 25  L 7.500000000000011 18  L 25 18  L 25 7  L 7.500000000000011 7  L 7.500000000000011 0  Z " fill-rule="nonzero" fill="#0000ff" stroke="none" transform="matrix(1 0 0 1 369 497 )" />
    <path d="M 7.500000000000011 0  L 0 12.5  L 7.500000000000011 25  L 7.500000000000011 18  L 25 18  L 25 7  L 7.500000000000011 7  L 7.500000000000011 0  Z " stroke-width="2" stroke="#797979" fill="none" transform="matrix(1 0 0 1 369 497 )" mask="url(#clip2)" />
  </g>
</svg>