<?xml version="1.0" encoding="utf-8"?>
<svg version="1.1" xmlns:xlink="http://www.w3.org/1999/xlink" width="20px" height="15px" xmlns="http://www.w3.org/2000/svg">
  <defs>
    <mask fill="white" id="clip10">
      <path d="M 6.000000000000009 0  L 0 7.5  L 6.000000000000009 15  L 6.000000000000009 11  L 20 11  L 20 4  L 6.000000000000009 4  L 6.000000000000009 0  Z " fill-rule="evenodd" />
    </mask>
  </defs>
  <g transform="matrix(1 0 0 1 -327 -508 )">
    <path d="M 6.000000000000009 0  L 0 7.5  L 6.000000000000009 15  L 6.000000000000009 11  L 20 11  L 20 4  L 6.000000000000009 4  L 6.000000000000009 0  Z " fill-rule="nonzero" fill="#0000ff" stroke="none" transform="matrix(1 0 0 1 327 508 )" />
    <path d="M 6.000000000000009 0  L 0 7.5  L 6.000000000000009 15  L 6.000000000000009 11  L 20 11  L 20 4  L 6.000000000000009 4  L 6.000000000000009 0  Z " stroke-width="2" stroke="#797979" fill="none" transform="matrix(1 0 0 1 327 508 )" mask="url(#clip10)" />
  </g>
</svg>