<?xml version="1.0" encoding="utf-8"?>
<svg version="1.1" xmlns:xlink="http://www.w3.org/1999/xlink" width="18px" height="18px" viewBox="8 8  18 18" xmlns="http://www.w3.org/2000/svg">
  <path d="M 9.5 10  A 0.5 0.5 0 0 1 10 9.5 L 24 9.5  A 0.5 0.5 0 0 1 24.5 10 L 24.5 24  A 0.5 0.5 0 0 1 24 24.5 L 10 24.5  A 0.5 0.5 0 0 1 9.5 24 L 9.5 10  Z " fill-rule="nonzero" fill="#ffffff" stroke="none" fill-opacity="0" />
  <path d="M 9 10  A 1 1 0 0 1 10 9 L 24 9  A 1 1 0 0 1 25 10 L 25 24  A 1 1 0 0 1 24 25 L 10 25  A 1 1 0 0 1 9 24 L 9 10  Z " stroke-width="2" stroke="#797979" fill="none" />
</svg>