<?xml version="1.0" encoding="utf-8"?>
<svg version="1.1" xmlns:xlink="http://www.w3.org/1999/xlink" width="18px" height="18px" viewBox="8 47  18 18" xmlns="http://www.w3.org/2000/svg">
  <path d="M 9.5 49  A 0.5 0.5 0 0 1 10 48.5 L 24 48.5  A 0.5 0.5 0 0 1 24.5 49 L 24.5 63  A 0.5 0.5 0 0 1 24 63.5 L 10 63.5  A 0.5 0.5 0 0 1 9.5 63 L 9.5 49  Z " fill-rule="nonzero" fill="#ffffff" stroke="none" fill-opacity="0" />
  <path d="M 9 49  A 1 1 0 0 1 10 48 L 24 48  A 1 1 0 0 1 25 49 L 25 63  A 1 1 0 0 1 24 64 L 10 64  A 1 1 0 0 1 9 63 L 9 49  Z " stroke-width="2" stroke="#797979" fill="none" />
</svg>