<?xml version="1.0" encoding="utf-8"?>
<svg version="1.1" xmlns:xlink="http://www.w3.org/1999/xlink" width="18px" height="13px" xmlns="http://www.w3.org/2000/svg">
  <defs>
    <mask fill="white" id="clip6">
      <path d="M 5.4000000000000075 0  L 0 6.5  L 5.4000000000000075 13  L 5.4000000000000075 9.490000000000018  L 18 9.490000000000018  L 18 3.5099999999999807  L 5.4000000000000075 3.5099999999999807  L 5.4000000000000075 0  Z " fill-rule="evenodd" />
    </mask>
  </defs>
  <g transform="matrix(1 0 0 1 -274 -283 )">
    <path d="M 5.4000000000000075 0  L 0 6.5  L 5.4000000000000075 13  L 5.4000000000000075 9.490000000000018  L 18 9.490000000000018  L 18 3.5099999999999807  L 5.4000000000000075 3.5099999999999807  L 5.4000000000000075 0  Z " fill-rule="nonzero" fill="#0000ff" stroke="none" transform="matrix(1 0 0 1 274 283 )" />
    <path d="M 5.4000000000000075 0  L 0 6.5  L 5.4000000000000075 13  L 5.4000000000000075 9.490000000000018  L 18 9.490000000000018  L 18 3.5099999999999807  L 5.4000000000000075 3.5099999999999807  L 5.4000000000000075 0  Z " stroke-width="2" stroke="#797979" fill="none" transform="matrix(1 0 0 1 274 283 )" mask="url(#clip6)" />
  </g>
</svg>