<?xml version="1.0" encoding="utf-8"?>
<svg version="1.1" xmlns:xlink="http://www.w3.org/1999/xlink" width="300px" height="300px" xmlns="http://www.w3.org/2000/svg">
  <defs>
    <mask fill="white" id="clip4">
      <path d="M 48.67619047619046 300  L 6.000000000000001 300  C 2.6400000000000006 300  0 296.97247706422024  0 293.1192660550459  L 0 6.880733944954128  C 0 3.027522935779822  2.6400000000000006 0  6.000000000000001 0  L 38.46153846153847 0  L 216.9230769230769 0  L 294 0  C 297.35999999999996 0  300 3.027522935779822  300 6.880733944954128  L 300 293.1192660550459  C 300 296.97247706422024  297.35999999999996 300  294 300  L 48.67619047619046 300  Z M 39 223  L 260 223  L 260 60  L 39 60  L 39 223  Z " fill-rule="evenodd" />
    </mask>
  </defs>
  <g>
    <path d="M 48.67619047619046 300  L 6.000000000000001 300  C 2.6400000000000006 300  0 296.97247706422024  0 293.1192660550459  L 0 6.880733944954128  C 0 3.027522935779822  2.6400000000000006 0  6.000000000000001 0  L 38.46153846153847 0  L 216.9230769230769 0  L 294 0  C 297.35999999999996 0  300 3.027522935779822  300 6.880733944954128  L 300 293.1192660550459  C 300 296.97247706422024  297.35999999999996 300  294 300  L 48.67619047619046 300  Z M 39 223  L 260 223  L 260 60  L 39 60  L 39 223  Z " fill-rule="nonzero" fill="#ffffff" stroke="none" />
    <path d="M 48.67619047619046 300  L 6.000000000000001 300  C 2.6400000000000006 300  0 296.97247706422024  0 293.1192660550459  L 0 6.880733944954128  C 0 3.027522935779822  2.6400000000000006 0  6.000000000000001 0  L 38.46153846153847 0  L 216.9230769230769 0  L 294 0  C 297.35999999999996 0  300 3.027522935779822  300 6.880733944954128  L 300 293.1192660550459  C 300 296.97247706422024  297.35999999999996 300  294 300  L 48.67619047619046 300  Z " stroke-width="2" stroke="#797979" fill="none" mask="url(#clip4)" />
    <path d="M 39 223  L 260 223  L 260 60  L 39 60  L 39 223  Z " stroke-width="2" stroke="#797979" fill="none" mask="url(#clip4)" />
  </g>
</svg>