<?xml version="1.0" encoding="utf-8"?>
<svg version="1.1" xmlns:xlink="http://www.w3.org/1999/xlink" width="328px" height="358px" xmlns="http://www.w3.org/2000/svg">
  <defs>
    <mask fill="white" id="clip8">
      <path d="M 53.21930158730157 358  L 6.560000000000001 358  C 2.886400000000001 358  0 354.3871559633028  0 349.7889908256881  L 0 8.211009174311926  C 0 3.612844036697254  2.886400000000001 0  6.560000000000001 0  L 42.05128205128206 0  L 237.16923076923075 0  L 321.44 0  C 325.11359999999996 0  328 3.612844036697254  328 8.211009174311926  L 328 349.7889908256881  C 328 354.3871559633028  325.11359999999996 358  321.44 358  L 53.21930158730157 358  Z M 43 267  L 284 267  L 284 71  L 43 71  L 43 267  Z " fill-rule="evenodd" />
    </mask>
  </defs>
  <g transform="matrix(1 0 0 1 -23 -171 )">
    <path d="M 53.21930158730157 358  L 6.560000000000001 358  C 2.886400000000001 358  0 354.3871559633028  0 349.7889908256881  L 0 8.211009174311926  C 0 3.612844036697254  2.886400000000001 0  6.560000000000001 0  L 42.05128205128206 0  L 237.16923076923075 0  L 321.44 0  C 325.11359999999996 0  328 3.612844036697254  328 8.211009174311926  L 328 349.7889908256881  C 328 354.3871559633028  325.11359999999996 358  321.44 358  L 53.21930158730157 358  Z M 43 267  L 284 267  L 284 71  L 43 71  L 43 267  Z " fill-rule="nonzero" fill="#ffffff" stroke="none" transform="matrix(1 0 0 1 23 171 )" />
    <path d="M 53.21930158730157 358  L 6.560000000000001 358  C 2.886400000000001 358  0 354.3871559633028  0 349.7889908256881  L 0 8.211009174311926  C 0 3.612844036697254  2.886400000000001 0  6.560000000000001 0  L 42.05128205128206 0  L 237.16923076923075 0  L 321.44 0  C 325.11359999999996 0  328 3.612844036697254  328 8.211009174311926  L 328 349.7889908256881  C 328 354.3871559633028  325.11359999999996 358  321.44 358  L 53.21930158730157 358  Z " stroke-width="2" stroke="#797979" fill="none" transform="matrix(1 0 0 1 23 171 )" mask="url(#clip8)" />
    <path d="M 43 267  L 284 267  L 284 71  L 43 71  L 43 267  Z " stroke-width="2" stroke="#797979" fill="none" transform="matrix(1 0 0 1 23 171 )" mask="url(#clip8)" />
  </g>
</svg>