<?xml version="1.0" encoding="utf-8"?>
<svg version="1.1" xmlns:xlink="http://www.w3.org/1999/xlink" width="328px" height="360px" xmlns="http://www.w3.org/2000/svg">
  <defs>
    <mask fill="white" id="clip13">
      <path d="M 53.21930158730157 360  L 6.560000000000001 360  C 2.886400000000001 360  0 356.3669724770643  0 351.74311926605503  L 0 8.256880733944953  C 0 3.6330275229357865  2.886400000000001 0  6.560000000000001 0  L 42.05128205128206 0  L 237.16923076923075 0  L 321.44 0  C 325.11359999999996 0  328 3.6330275229357865  328 8.256880733944953  L 328 351.74311926605503  C 328 356.3669724770643  325.11359999999996 360  321.44 360  L 53.21930158730157 360  Z M 43 268  L 284 268  L 284 72  L 43 72  L 43 268  Z " fill-rule="evenodd" />
    </mask>
  </defs>
  <g transform="matrix(1 0 0 1 -24 0 )">
    <path d="M 53.21930158730157 360  L 6.560000000000001 360  C 2.886400000000001 360  0 356.3669724770643  0 351.74311926605503  L 0 8.256880733944953  C 0 3.6330275229357865  2.886400000000001 0  6.560000000000001 0  L 42.05128205128206 0  L 237.16923076923075 0  L 321.44 0  C 325.11359999999996 0  328 3.6330275229357865  328 8.256880733944953  L 328 351.74311926605503  C 328 356.3669724770643  325.11359999999996 360  321.44 360  L 53.21930158730157 360  Z M 43 268  L 284 268  L 284 72  L 43 72  L 43 268  Z " fill-rule="nonzero" fill="#ffffff" stroke="none" transform="matrix(1 0 0 1 24 0 )" />
    <path d="M 53.21930158730157 360  L 6.560000000000001 360  C 2.886400000000001 360  0 356.3669724770643  0 351.74311926605503  L 0 8.256880733944953  C 0 3.6330275229357865  2.886400000000001 0  6.560000000000001 0  L 42.05128205128206 0  L 237.16923076923075 0  L 321.44 0  C 325.11359999999996 0  328 3.6330275229357865  328 8.256880733944953  L 328 351.74311926605503  C 328 356.3669724770643  325.11359999999996 360  321.44 360  L 53.21930158730157 360  Z " stroke-width="2" stroke="#797979" fill="none" transform="matrix(1 0 0 1 24 0 )" mask="url(#clip13)" />
    <path d="M 43 268  L 284 268  L 284 72  L 43 72  L 43 268  Z " stroke-width="2" stroke="#797979" fill="none" transform="matrix(1 0 0 1 24 0 )" mask="url(#clip13)" />
  </g>
</svg>