<?xml version="1.0" encoding="utf-8"?>
<svg version="1.1" xmlns:xlink="http://www.w3.org/1999/xlink" width="407px" height="358px" xmlns="http://www.w3.org/2000/svg">
  <defs>
    <mask fill="white" id="clip1">
      <path d="M 66.03736507936506 358  L 8.140000000000002 358  C 3.581600000000001 358  0 354.3871559633028  0 349.7889908256881  L 0 8.211009174311926  C 0 3.612844036697254  3.581600000000001 0  8.140000000000002 0  L 52.17948717948719 0  L 294.2923076923077 0  L 398.86 0  C 403.41839999999996 0  407 3.612844036697254  407 8.211009174311926  L 407 349.7889908256881  C 407 354.3871559633028  403.41839999999996 358  398.86 358  L 66.03736507936506 358  Z M 53 267  L 353 267  L 353 71  L 53 71  L 53 267  Z " fill-rule="evenodd" />
    </mask>
  </defs>
  <g transform="matrix(1 0 0 1 0 -171 )">
    <path d="M 66.03736507936506 358  L 8.140000000000002 358  C 3.581600000000001 358  0 354.3871559633028  0 349.7889908256881  L 0 8.211009174311926  C 0 3.612844036697254  3.581600000000001 0  8.140000000000002 0  L 52.17948717948719 0  L 294.2923076923077 0  L 398.86 0  C 403.41839999999996 0  407 3.612844036697254  407 8.211009174311926  L 407 349.7889908256881  C 407 354.3871559633028  403.41839999999996 358  398.86 358  L 66.03736507936506 358  Z M 53 267  L 353 267  L 353 71  L 53 71  L 53 267  Z " fill-rule="nonzero" fill="#ffffff" stroke="none" transform="matrix(1 0 0 1 0 171 )" />
    <path d="M 66.03736507936506 358  L 8.140000000000002 358  C 3.581600000000001 358  0 354.3871559633028  0 349.7889908256881  L 0 8.211009174311926  C 0 3.612844036697254  3.581600000000001 0  8.140000000000002 0  L 52.17948717948719 0  L 294.2923076923077 0  L 398.86 0  C 403.41839999999996 0  407 3.612844036697254  407 8.211009174311926  L 407 349.7889908256881  C 407 354.3871559633028  403.41839999999996 358  398.86 358  L 66.03736507936506 358  Z " stroke-width="2" stroke="#797979" fill="none" transform="matrix(1 0 0 1 0 171 )" mask="url(#clip1)" />
    <path d="M 53 267  L 353 267  L 353 71  L 53 71  L 53 267  Z " stroke-width="2" stroke="#797979" fill="none" transform="matrix(1 0 0 1 0 171 )" mask="url(#clip1)" />
  </g>
</svg>